G04*
G04 #@! TF.GenerationSoftware,Altium Limited,Altium Designer,20.0.13 (296)*
G04*
G04 Layer_Physical_Order=2*
G04 Layer_Color=32768*
%FSLAX24Y24*%
%MOIN*%
G70*
G01*
G75*
%ADD34C,0.0100*%
%ADD37C,0.0200*%
%ADD52C,0.0400*%
%ADD53R,0.1950X5.1300*%
%ADD54C,0.0400*%
%ADD55C,0.1581*%
%ADD56C,0.0380*%
%ADD57C,0.1360*%
%ADD58C,0.0514*%
%ADD59C,0.1060*%
%ADD60C,0.0460*%
%ADD61C,0.0514*%
%ADD62C,0.0357*%
%ADD63C,0.0480*%
%ADD64C,0.0280*%
D34*
X0Y0D02*
X78900D01*
X0Y51300D02*
X79050D01*
X78700D02*
X79400D01*
X80700D01*
X79400Y0D02*
X80700D01*
X78700D02*
X79400D01*
X80700Y51300D02*
X80700Y0D01*
X-1969D02*
Y51300D01*
X-700D02*
X0D01*
X-1969D02*
X-700D01*
X-1969Y0D02*
X-700D01*
X0D01*
X-100Y25600D02*
X39270D01*
X37329Y23682D02*
X37329Y23682D01*
X39270Y0D02*
X39349Y25600D01*
X33900Y25600D02*
X39349D01*
X-100D02*
X-100Y10D01*
Y0D02*
X39270D01*
X39449Y25600D02*
X78819D01*
X76877Y23682D02*
X76877Y23682D01*
X78819Y0D02*
X78897Y25600D01*
X73449Y25600D02*
X78897D01*
X39449D02*
X39449Y10D01*
Y0D02*
X78819D01*
X-100Y51300D02*
X39270D01*
X37329Y49382D02*
X37329Y49382D01*
X39270Y25700D02*
X39349Y51300D01*
X33900Y51300D02*
X39349D01*
X-100D02*
X-100Y25710D01*
Y25700D02*
X39270D01*
X39449Y51300D02*
X78819D01*
X76877Y49382D02*
X76877Y49382D01*
X78819Y25700D02*
X78897Y51300D01*
X73449Y51300D02*
X78897D01*
X39449D02*
X39449Y25710D01*
Y25700D02*
X78819D01*
D37*
X47Y16672D02*
X115Y16603D01*
X9212Y-4D02*
Y988D01*
X9215Y16078D02*
X9215Y990D01*
X9212Y988D02*
X9215Y990D01*
X9184Y-32D02*
X9529D01*
X9184D02*
X9212Y-4D01*
X9118Y16176D02*
X9215Y16078D01*
X9118Y16176D02*
Y16603D01*
X115D02*
X9118D01*
X10046Y-32D02*
X10151Y73D01*
X39595Y16672D02*
X39664Y16603D01*
X48761Y-4D02*
Y988D01*
X48764Y16078D02*
X48764Y990D01*
X48761Y988D02*
X48764Y990D01*
X48733Y-32D02*
X49078D01*
X48733D02*
X48761Y-4D01*
X48667Y16176D02*
X48764Y16078D01*
X48667Y16176D02*
Y16603D01*
X39664D02*
X48667D01*
X49595Y-32D02*
X49700Y73D01*
X47Y42372D02*
X115Y42303D01*
X9212Y25696D02*
Y26688D01*
X9215Y41779D02*
X9215Y26691D01*
X9212Y26688D02*
X9215Y26691D01*
X9184Y25668D02*
X9529D01*
X9184D02*
X9212Y25696D01*
X9118Y41876D02*
X9215Y41779D01*
X9118Y41876D02*
Y42303D01*
X115D02*
X9118D01*
X10046Y25668D02*
X10151Y25773D01*
X39595Y42372D02*
X39664Y42303D01*
X48761Y25696D02*
Y26688D01*
X48764Y41779D02*
X48764Y26691D01*
X48761Y26688D02*
X48764Y26691D01*
X48733Y25668D02*
X49078D01*
X48733D02*
X48761Y25696D01*
X48667Y41876D02*
X48764Y41779D01*
X48667Y41876D02*
Y42303D01*
X39664D02*
X48667D01*
X49595Y25668D02*
X49700Y25773D01*
D52*
X80668Y-50D02*
G03*
X80719Y0I0J50D01*
G01*
Y51300D02*
G03*
X80668Y51350I-50J0D01*
G01*
X-1969D02*
G03*
X-2019Y51300I0J-50D01*
G01*
Y0D02*
G03*
X-1969Y-50I50J0D01*
G01*
X80668D01*
X80719Y0D02*
Y51300D01*
X-1969Y51350D02*
X80668D01*
X-2019Y0D02*
Y51300D01*
X-150Y10D02*
G03*
X-150Y5I50J0D01*
G01*
X-100Y25650D02*
G03*
X-150Y25600I0J-50D01*
G01*
X39309Y25631D02*
G03*
X39270Y25650I-39J-31D01*
G01*
X39399Y25600D02*
G03*
X39309Y25631I-50J0D01*
G01*
X39320Y-0D02*
G03*
X39320Y0I-50J0D01*
G01*
X39270Y-50D02*
G03*
X39320Y-0I0J50D01*
G01*
X-150Y5D02*
G03*
X-100Y-50I50J-5D01*
G01*
X39270D01*
X39320Y-0D02*
Y0D01*
Y-0D02*
X39399Y25600D01*
X-100Y25650D02*
X39270D01*
X-150Y25600D02*
X-150Y10D01*
X39399D02*
G03*
X39399Y5I50J0D01*
G01*
X39449Y25650D02*
G03*
X39399Y25600I0J-50D01*
G01*
X78858Y25631D02*
G03*
X78819Y25650I-39J-31D01*
G01*
X78948Y25600D02*
G03*
X78858Y25631I-50J0D01*
G01*
X78869Y-0D02*
G03*
X78869Y0I-50J0D01*
G01*
X78819Y-50D02*
G03*
X78869Y-0I0J50D01*
G01*
X39399Y5D02*
G03*
X39449Y-50I50J-5D01*
G01*
X78819D01*
X78869Y-0D02*
Y0D01*
Y-0D02*
X78948Y25600D01*
X39449Y25650D02*
X78819D01*
X39399Y25600D02*
X39399Y10D01*
X-150Y25710D02*
G03*
X-150Y25705I50J0D01*
G01*
X-100Y51351D02*
G03*
X-150Y51300I0J-50D01*
G01*
X39309Y51332D02*
G03*
X39270Y51351I-39J-31D01*
G01*
X39399Y51300D02*
G03*
X39309Y51332I-50J0D01*
G01*
X39270Y25650D02*
G03*
X39320Y25700I0J50D01*
G01*
X-150Y25705D02*
G03*
X-100Y25650I50J-5D01*
G01*
X39270D01*
X39320Y25700D02*
Y25700D01*
Y25700D02*
X39399Y51300D01*
X-100Y51351D02*
X39270D01*
X-150Y51300D02*
X-150Y25710D01*
X39399D02*
G03*
X39399Y25705I50J0D01*
G01*
X39449Y51351D02*
G03*
X39399Y51300I0J-50D01*
G01*
X78858Y51332D02*
G03*
X78819Y51351I-39J-31D01*
G01*
X78948Y51300D02*
G03*
X78858Y51332I-50J0D01*
G01*
X78819Y25650D02*
G03*
X78869Y25700I0J50D01*
G01*
X39399Y25705D02*
G03*
X39449Y25650I50J-5D01*
G01*
X78819D01*
X78869Y25700D02*
Y25700D01*
Y25700D02*
X78948Y51300D01*
X39449Y51351D02*
X78819D01*
X39399Y51300D02*
X39399Y25710D01*
D53*
X79825Y25700D02*
D03*
X-1125D02*
D03*
D54*
X39399Y25600D02*
D03*
X78948D02*
D03*
X39399Y51300D02*
D03*
X39320Y25700D02*
D03*
X78948Y51300D02*
D03*
X78869Y25700D02*
D03*
D55*
X79850Y900D02*
D03*
X79900Y50350D02*
D03*
X-1050Y50400D02*
D03*
Y900D02*
D03*
D56*
X2477Y24193D02*
D03*
X2691Y23728D02*
D03*
X2591Y23227D02*
D03*
X2215Y22880D02*
D03*
X1707Y22820D02*
D03*
X1260Y23070D02*
D03*
X1047Y23535D02*
D03*
X1147Y24037D02*
D03*
X1523Y24384D02*
D03*
X2031Y24443D02*
D03*
X37916Y24246D02*
D03*
X38130Y23782D02*
D03*
X38030Y23280D02*
D03*
X37654Y22933D02*
D03*
X37146Y22873D02*
D03*
X36700Y23124D02*
D03*
X36486Y23588D02*
D03*
X36586Y24090D02*
D03*
X36962Y24437D02*
D03*
X37470Y24497D02*
D03*
X37910Y2530D02*
D03*
X38124Y2065D02*
D03*
X38024Y1564D02*
D03*
X37648Y1217D02*
D03*
X37140Y1157D02*
D03*
X36693Y1407D02*
D03*
X36480Y1872D02*
D03*
X36580Y2374D02*
D03*
X36956Y2721D02*
D03*
X37464Y2780D02*
D03*
X2677Y2480D02*
D03*
X2891Y2015D02*
D03*
X2791Y1514D02*
D03*
X2415Y1167D02*
D03*
X1907Y1107D02*
D03*
X1460Y1357D02*
D03*
X1247Y1822D02*
D03*
X1347Y2324D02*
D03*
X1723Y2671D02*
D03*
X2231Y2730D02*
D03*
X42026Y24193D02*
D03*
X42240Y23728D02*
D03*
X42139Y23227D02*
D03*
X41763Y22880D02*
D03*
X41255Y22820D02*
D03*
X40809Y23070D02*
D03*
X40595Y23535D02*
D03*
X40696Y24037D02*
D03*
X41071Y24384D02*
D03*
X41580Y24443D02*
D03*
X77465Y24246D02*
D03*
X77679Y23782D02*
D03*
X77579Y23280D02*
D03*
X77203Y22933D02*
D03*
X76695Y22873D02*
D03*
X76248Y23124D02*
D03*
X76035Y23588D02*
D03*
X76135Y24090D02*
D03*
X76511Y24437D02*
D03*
X77019Y24497D02*
D03*
X77459Y2530D02*
D03*
X77673Y2065D02*
D03*
X77572Y1564D02*
D03*
X77196Y1217D02*
D03*
X76688Y1157D02*
D03*
X76242Y1407D02*
D03*
X76028Y1872D02*
D03*
X76129Y2374D02*
D03*
X76505Y2721D02*
D03*
X77013Y2780D02*
D03*
X42226Y2480D02*
D03*
X42440Y2015D02*
D03*
X42339Y1514D02*
D03*
X41963Y1167D02*
D03*
X41455Y1107D02*
D03*
X41009Y1357D02*
D03*
X40795Y1822D02*
D03*
X40896Y2324D02*
D03*
X41271Y2671D02*
D03*
X41780Y2730D02*
D03*
X2477Y49893D02*
D03*
X2691Y49429D02*
D03*
X2591Y48927D02*
D03*
X2215Y48580D02*
D03*
X1707Y48520D02*
D03*
X1260Y48771D02*
D03*
X1047Y49235D02*
D03*
X1147Y49737D02*
D03*
X1523Y50084D02*
D03*
X2031Y50144D02*
D03*
X37916Y49947D02*
D03*
X38130Y49482D02*
D03*
X38030Y48980D02*
D03*
X37654Y48633D02*
D03*
X37146Y48574D02*
D03*
X36700Y48824D02*
D03*
X36486Y49289D02*
D03*
X36586Y49790D02*
D03*
X36962Y50137D02*
D03*
X37470Y50197D02*
D03*
X37910Y28230D02*
D03*
X38124Y27766D02*
D03*
X38024Y27264D02*
D03*
X37648Y26917D02*
D03*
X37140Y26857D02*
D03*
X36693Y27108D02*
D03*
X36480Y27572D02*
D03*
X36580Y28074D02*
D03*
X36956Y28421D02*
D03*
X37464Y28481D02*
D03*
X2677Y28180D02*
D03*
X2891Y27716D02*
D03*
X2791Y27214D02*
D03*
X2415Y26867D02*
D03*
X1907Y26807D02*
D03*
X1460Y27058D02*
D03*
X1247Y27522D02*
D03*
X1347Y28024D02*
D03*
X1723Y28371D02*
D03*
X2231Y28431D02*
D03*
X42026Y49893D02*
D03*
X42240Y49429D02*
D03*
X42139Y48927D02*
D03*
X41763Y48580D02*
D03*
X41255Y48520D02*
D03*
X40809Y48771D02*
D03*
X40595Y49235D02*
D03*
X40696Y49737D02*
D03*
X41071Y50084D02*
D03*
X41580Y50144D02*
D03*
X77465Y49947D02*
D03*
X77679Y49482D02*
D03*
X77579Y48980D02*
D03*
X77203Y48633D02*
D03*
X76695Y48574D02*
D03*
X76248Y48824D02*
D03*
X76035Y49289D02*
D03*
X76135Y49790D02*
D03*
X76511Y50137D02*
D03*
X77019Y50197D02*
D03*
X77459Y28230D02*
D03*
X77673Y27766D02*
D03*
X77572Y27264D02*
D03*
X77196Y26917D02*
D03*
X76688Y26857D02*
D03*
X76242Y27108D02*
D03*
X76028Y27572D02*
D03*
X76129Y28074D02*
D03*
X76505Y28421D02*
D03*
X77013Y28481D02*
D03*
X42226Y28180D02*
D03*
X42440Y27716D02*
D03*
X42339Y27214D02*
D03*
X41963Y26867D02*
D03*
X41455Y26807D02*
D03*
X41009Y27058D02*
D03*
X40795Y27522D02*
D03*
X40896Y28024D02*
D03*
X41271Y28371D02*
D03*
X41780Y28431D02*
D03*
D57*
X1869Y23632D02*
D03*
X37308Y23685D02*
D03*
X37302Y1969D02*
D03*
X2069Y1919D02*
D03*
X41417Y23632D02*
D03*
X76857Y23685D02*
D03*
X76851Y1969D02*
D03*
X41617Y1919D02*
D03*
X1869Y49332D02*
D03*
X37308Y49385D02*
D03*
X37302Y27669D02*
D03*
X2069Y27619D02*
D03*
X41417Y49332D02*
D03*
X76857Y49385D02*
D03*
X76851Y27669D02*
D03*
X41617Y27619D02*
D03*
D58*
X32518Y8800D02*
D03*
X31518D02*
D03*
X32518Y9800D02*
D03*
X31518D02*
D03*
X32518Y10800D02*
D03*
X31518D02*
D03*
X32518Y11800D02*
D03*
X31518D02*
D03*
X32518Y12800D02*
D03*
X31518D02*
D03*
X32518Y13800D02*
D03*
X31518D02*
D03*
X32518Y14800D02*
D03*
X31518D02*
D03*
X32518Y15800D02*
D03*
X31518D02*
D03*
X32518Y16800D02*
D03*
X31518D02*
D03*
X32518Y17800D02*
D03*
X31518D02*
D03*
Y18800D02*
D03*
X21400Y6800D02*
D03*
X22400D02*
D03*
X23400D02*
D03*
Y7800D02*
D03*
X24400Y6800D02*
D03*
Y7800D02*
D03*
X25400Y6800D02*
D03*
Y7800D02*
D03*
X26400Y6800D02*
D03*
Y7800D02*
D03*
X27400Y6800D02*
D03*
Y7800D02*
D03*
X28400Y6800D02*
D03*
Y7800D02*
D03*
X29400Y6800D02*
D03*
X30400D02*
D03*
X20203Y9800D02*
D03*
X19203D02*
D03*
X20203Y10800D02*
D03*
X19203D02*
D03*
X20203Y11800D02*
D03*
X19203D02*
D03*
X20203Y12800D02*
D03*
X19203D02*
D03*
X20203Y13800D02*
D03*
X19203D02*
D03*
X20203Y14800D02*
D03*
X19203D02*
D03*
X20203Y15800D02*
D03*
X19203D02*
D03*
X20203Y16800D02*
D03*
X19203D02*
D03*
X20203Y17800D02*
D03*
X19203D02*
D03*
X20203Y18800D02*
D03*
X19203D02*
D03*
X20403Y3749D02*
D03*
X21403D02*
D03*
X24856Y903D02*
D03*
Y1903D02*
D03*
X25856Y903D02*
D03*
Y1903D02*
D03*
X27856Y903D02*
D03*
Y1903D02*
D03*
X17650Y7650D02*
D03*
X16650D02*
D03*
X17650Y8650D02*
D03*
X16650D02*
D03*
X17650Y9650D02*
D03*
X16650D02*
D03*
X17650Y10650D02*
D03*
X16650D02*
D03*
X17650Y11650D02*
D03*
X16650D02*
D03*
X17650Y12650D02*
D03*
X16650D02*
D03*
Y19950D02*
D03*
X17650D02*
D03*
X16650Y18950D02*
D03*
X17650D02*
D03*
X16650Y17950D02*
D03*
X17650D02*
D03*
X16650Y16950D02*
D03*
X17650D02*
D03*
X16650Y15950D02*
D03*
X17650D02*
D03*
X16650Y14950D02*
D03*
X17650D02*
D03*
X20408Y884D02*
D03*
X21408D02*
D03*
X22408D02*
D03*
X23408D02*
D03*
X30832Y909D02*
D03*
X31832D02*
D03*
X32832D02*
D03*
X33832D02*
D03*
X34832D02*
D03*
X36500Y7900D02*
D03*
X31950Y24550D02*
D03*
X32950D02*
D03*
X33950D02*
D03*
X21985Y23295D02*
D03*
Y24295D02*
D03*
X22985Y23295D02*
D03*
Y24295D02*
D03*
X23985Y23295D02*
D03*
Y24295D02*
D03*
X8450Y24536D02*
D03*
X7450D02*
D03*
X6450D02*
D03*
X72067Y8800D02*
D03*
X71067D02*
D03*
X72067Y9800D02*
D03*
X71067D02*
D03*
X72067Y10800D02*
D03*
X71067D02*
D03*
X72067Y11800D02*
D03*
X71067D02*
D03*
X72067Y12800D02*
D03*
X71067D02*
D03*
X72067Y13800D02*
D03*
X71067D02*
D03*
X72067Y14800D02*
D03*
X71067D02*
D03*
X72067Y15800D02*
D03*
X71067D02*
D03*
X72067Y16800D02*
D03*
X71067D02*
D03*
X72067Y17800D02*
D03*
X71067D02*
D03*
Y18800D02*
D03*
X60949Y6800D02*
D03*
X61949D02*
D03*
X62949D02*
D03*
Y7800D02*
D03*
X63949Y6800D02*
D03*
Y7800D02*
D03*
X64949Y6800D02*
D03*
Y7800D02*
D03*
X65949Y6800D02*
D03*
Y7800D02*
D03*
X66949Y6800D02*
D03*
Y7800D02*
D03*
X67949Y6800D02*
D03*
Y7800D02*
D03*
X68949Y6800D02*
D03*
X69949D02*
D03*
X59752Y9800D02*
D03*
X58752D02*
D03*
X59752Y10800D02*
D03*
X58752D02*
D03*
X59752Y11800D02*
D03*
X58752D02*
D03*
X59752Y12800D02*
D03*
X58752D02*
D03*
X59752Y13800D02*
D03*
X58752D02*
D03*
X59752Y14800D02*
D03*
X58752D02*
D03*
X59752Y15800D02*
D03*
X58752D02*
D03*
X59752Y16800D02*
D03*
X58752D02*
D03*
X59752Y17800D02*
D03*
X58752D02*
D03*
X59752Y18800D02*
D03*
X58752D02*
D03*
X59952Y3749D02*
D03*
X60952D02*
D03*
X64405Y903D02*
D03*
Y1903D02*
D03*
X65405Y903D02*
D03*
Y1903D02*
D03*
X67405Y903D02*
D03*
Y1903D02*
D03*
X57199Y7650D02*
D03*
X56199D02*
D03*
X57199Y8650D02*
D03*
X56199D02*
D03*
X57199Y9650D02*
D03*
X56199D02*
D03*
X57199Y10650D02*
D03*
X56199D02*
D03*
X57199Y11650D02*
D03*
X56199D02*
D03*
X57199Y12650D02*
D03*
X56199D02*
D03*
Y19950D02*
D03*
X57199D02*
D03*
X56199Y18950D02*
D03*
X57199D02*
D03*
X56199Y17950D02*
D03*
X57199D02*
D03*
X56199Y16950D02*
D03*
X57199D02*
D03*
X56199Y15950D02*
D03*
X57199D02*
D03*
X56199Y14950D02*
D03*
X57199D02*
D03*
X59956Y884D02*
D03*
X60956D02*
D03*
X61956D02*
D03*
X62956D02*
D03*
X70381Y909D02*
D03*
X71381D02*
D03*
X72381D02*
D03*
X73381D02*
D03*
X74381D02*
D03*
X76049Y7900D02*
D03*
X71499Y24550D02*
D03*
X72499D02*
D03*
X73499D02*
D03*
X61534Y23295D02*
D03*
Y24295D02*
D03*
X62534Y23295D02*
D03*
Y24295D02*
D03*
X63534Y23295D02*
D03*
Y24295D02*
D03*
X47999Y24536D02*
D03*
X46999D02*
D03*
X45999D02*
D03*
X32518Y34500D02*
D03*
X31518D02*
D03*
X32518Y35500D02*
D03*
X31518D02*
D03*
X32518Y36500D02*
D03*
X31518D02*
D03*
X32518Y37500D02*
D03*
X31518D02*
D03*
X32518Y38500D02*
D03*
X31518D02*
D03*
X32518Y39500D02*
D03*
X31518D02*
D03*
X32518Y40500D02*
D03*
X31518D02*
D03*
X32518Y41500D02*
D03*
X31518D02*
D03*
X32518Y42500D02*
D03*
X31518D02*
D03*
X32518Y43500D02*
D03*
X31518D02*
D03*
Y44500D02*
D03*
X21400Y32500D02*
D03*
X22400D02*
D03*
X23400D02*
D03*
Y33500D02*
D03*
X24400Y32500D02*
D03*
Y33500D02*
D03*
X25400Y32500D02*
D03*
Y33500D02*
D03*
X26400Y32500D02*
D03*
Y33500D02*
D03*
X27400Y32500D02*
D03*
Y33500D02*
D03*
X28400Y32500D02*
D03*
Y33500D02*
D03*
X29400Y32500D02*
D03*
X30400D02*
D03*
X20203Y35500D02*
D03*
X19203D02*
D03*
X20203Y36500D02*
D03*
X19203D02*
D03*
X20203Y37500D02*
D03*
X19203D02*
D03*
X20203Y38500D02*
D03*
X19203D02*
D03*
X20203Y39500D02*
D03*
X19203D02*
D03*
X20203Y40500D02*
D03*
X19203D02*
D03*
X20203Y41500D02*
D03*
X19203D02*
D03*
X20203Y42500D02*
D03*
X19203D02*
D03*
X20203Y43500D02*
D03*
X19203D02*
D03*
X20203Y44500D02*
D03*
X19203D02*
D03*
X20403Y29449D02*
D03*
X21403D02*
D03*
X24856Y26603D02*
D03*
Y27603D02*
D03*
X25856Y26603D02*
D03*
Y27603D02*
D03*
X27856Y26603D02*
D03*
Y27603D02*
D03*
X17650Y33350D02*
D03*
X16650D02*
D03*
X17650Y34350D02*
D03*
X16650D02*
D03*
X17650Y35350D02*
D03*
X16650D02*
D03*
X17650Y36350D02*
D03*
X16650D02*
D03*
X17650Y37350D02*
D03*
X16650D02*
D03*
X17650Y38350D02*
D03*
X16650D02*
D03*
Y45650D02*
D03*
X17650D02*
D03*
X16650Y44650D02*
D03*
X17650D02*
D03*
X16650Y43650D02*
D03*
X17650D02*
D03*
X16650Y42650D02*
D03*
X17650D02*
D03*
X16650Y41650D02*
D03*
X17650D02*
D03*
X16650Y40650D02*
D03*
X17650D02*
D03*
X20408Y26584D02*
D03*
X21408D02*
D03*
X22408D02*
D03*
X23408D02*
D03*
X30832Y26609D02*
D03*
X31832D02*
D03*
X32832D02*
D03*
X33832D02*
D03*
X34832D02*
D03*
X36500Y33600D02*
D03*
X31950Y50250D02*
D03*
X32950D02*
D03*
X33950D02*
D03*
X21985Y48995D02*
D03*
Y49995D02*
D03*
X22985Y48995D02*
D03*
Y49995D02*
D03*
X23985Y48995D02*
D03*
Y49995D02*
D03*
X8450Y50236D02*
D03*
X7450D02*
D03*
X6450D02*
D03*
X72067Y34500D02*
D03*
X71067D02*
D03*
X72067Y35500D02*
D03*
X71067D02*
D03*
X72067Y36500D02*
D03*
X71067D02*
D03*
X72067Y37500D02*
D03*
X71067D02*
D03*
X72067Y38500D02*
D03*
X71067D02*
D03*
X72067Y39500D02*
D03*
X71067D02*
D03*
X72067Y40500D02*
D03*
X71067D02*
D03*
X72067Y41500D02*
D03*
X71067D02*
D03*
X72067Y42500D02*
D03*
X71067D02*
D03*
X72067Y43500D02*
D03*
X71067D02*
D03*
Y44500D02*
D03*
X60949Y32500D02*
D03*
X61949D02*
D03*
X62949D02*
D03*
Y33500D02*
D03*
X63949Y32500D02*
D03*
Y33500D02*
D03*
X64949Y32500D02*
D03*
Y33500D02*
D03*
X65949Y32500D02*
D03*
Y33500D02*
D03*
X66949Y32500D02*
D03*
Y33500D02*
D03*
X67949Y32500D02*
D03*
Y33500D02*
D03*
X68949Y32500D02*
D03*
X69949D02*
D03*
X59752Y35500D02*
D03*
X58752D02*
D03*
X59752Y36500D02*
D03*
X58752D02*
D03*
X59752Y37500D02*
D03*
X58752D02*
D03*
X59752Y38500D02*
D03*
X58752D02*
D03*
X59752Y39500D02*
D03*
X58752D02*
D03*
X59752Y40500D02*
D03*
X58752D02*
D03*
X59752Y41500D02*
D03*
X58752D02*
D03*
X59752Y42500D02*
D03*
X58752D02*
D03*
X59752Y43500D02*
D03*
X58752D02*
D03*
X59752Y44500D02*
D03*
X58752D02*
D03*
X59952Y29449D02*
D03*
X60952D02*
D03*
X64405Y26603D02*
D03*
Y27603D02*
D03*
X65405Y26603D02*
D03*
Y27603D02*
D03*
X67405Y26603D02*
D03*
Y27603D02*
D03*
X57199Y33350D02*
D03*
X56199D02*
D03*
X57199Y34350D02*
D03*
X56199D02*
D03*
X57199Y35350D02*
D03*
X56199D02*
D03*
X57199Y36350D02*
D03*
X56199D02*
D03*
X57199Y37350D02*
D03*
X56199D02*
D03*
X57199Y38350D02*
D03*
X56199D02*
D03*
Y45650D02*
D03*
X57199D02*
D03*
X56199Y44650D02*
D03*
X57199D02*
D03*
X56199Y43650D02*
D03*
X57199D02*
D03*
X56199Y42650D02*
D03*
X57199D02*
D03*
X56199Y41650D02*
D03*
X57199D02*
D03*
X56199Y40650D02*
D03*
X57199D02*
D03*
X59956Y26584D02*
D03*
X60956D02*
D03*
X61956D02*
D03*
X62956D02*
D03*
X70381Y26609D02*
D03*
X71381D02*
D03*
X72381D02*
D03*
X73381D02*
D03*
X74381D02*
D03*
X76049Y33600D02*
D03*
X71499Y50250D02*
D03*
X72499D02*
D03*
X73499D02*
D03*
X61534Y48995D02*
D03*
Y49995D02*
D03*
X62534Y48995D02*
D03*
Y49995D02*
D03*
X63534Y48995D02*
D03*
Y49995D02*
D03*
X47999Y50236D02*
D03*
X46999D02*
D03*
X45999D02*
D03*
D59*
X1426Y12700D02*
D03*
X3126D02*
D03*
X4826D02*
D03*
X16235Y23745D02*
D03*
X17935D02*
D03*
X19635D02*
D03*
X40974Y12700D02*
D03*
X42674D02*
D03*
X44374D02*
D03*
X55784Y23745D02*
D03*
X57484D02*
D03*
X59184D02*
D03*
X1426Y38400D02*
D03*
X3126D02*
D03*
X4826D02*
D03*
X16235Y49445D02*
D03*
X17935D02*
D03*
X19635D02*
D03*
X40974Y38400D02*
D03*
X42674D02*
D03*
X44374D02*
D03*
X55784Y49445D02*
D03*
X57484D02*
D03*
X59184D02*
D03*
D60*
X7043Y2800D02*
D03*
X8043D02*
D03*
X12043D02*
D03*
X38150Y5350D02*
D03*
Y8350D02*
D03*
X46592Y2800D02*
D03*
X47592D02*
D03*
X51592D02*
D03*
X77699Y5350D02*
D03*
Y8350D02*
D03*
X7043Y28500D02*
D03*
X8043D02*
D03*
X12043D02*
D03*
X38150Y31050D02*
D03*
Y34050D02*
D03*
X46592Y28500D02*
D03*
X47592D02*
D03*
X51592D02*
D03*
X77699Y31050D02*
D03*
Y34050D02*
D03*
D61*
X36500Y8400D02*
D03*
X76049D02*
D03*
X36500Y34100D02*
D03*
X76049D02*
D03*
D62*
X38150Y12400D02*
D03*
Y15600D02*
D03*
X77699Y12400D02*
D03*
Y15600D02*
D03*
X38150Y38100D02*
D03*
Y41300D02*
D03*
X77699Y38100D02*
D03*
Y41300D02*
D03*
D63*
X35251Y18650D02*
D03*
Y19650D02*
D03*
Y20650D02*
D03*
Y21650D02*
D03*
X74799Y18650D02*
D03*
Y19650D02*
D03*
Y20650D02*
D03*
Y21650D02*
D03*
X35251Y44350D02*
D03*
Y45350D02*
D03*
Y46350D02*
D03*
Y47350D02*
D03*
X74799Y44350D02*
D03*
Y45350D02*
D03*
Y46350D02*
D03*
Y47350D02*
D03*
D64*
X7650Y14750D02*
D03*
Y11750D02*
D03*
X6900Y10250D02*
D03*
Y1250D02*
D03*
X5400Y7250D02*
D03*
X6150Y5750D02*
D03*
X5400Y4250D02*
D03*
X6150Y2750D02*
D03*
X5400Y1250D02*
D03*
X3900Y13250D02*
D03*
X4650Y11750D02*
D03*
Y8750D02*
D03*
X3900Y7250D02*
D03*
X4650Y5750D02*
D03*
Y2750D02*
D03*
X3900Y1250D02*
D03*
X3150Y14750D02*
D03*
X2400Y7250D02*
D03*
X3150Y2750D02*
D03*
X1650Y14750D02*
D03*
Y11750D02*
D03*
X900Y10250D02*
D03*
Y7250D02*
D03*
Y1250D02*
D03*
X33249Y21703D02*
D03*
X29890Y6604D02*
D03*
X24330Y18618D02*
D03*
X24347Y11272D02*
D03*
X24349Y15095D02*
D03*
X23540Y15211D02*
D03*
X23533Y13360D02*
D03*
X11569Y7307D02*
D03*
X11907Y7296D02*
D03*
X11906Y7633D02*
D03*
X11575D02*
D03*
X30144Y9306D02*
D03*
X27673Y9790D02*
D03*
X27680Y11274D02*
D03*
X27688Y18877D02*
D03*
X27692Y17330D02*
D03*
X27690Y15089D02*
D03*
X22723Y19328D02*
D03*
X22734Y9291D02*
D03*
X23206Y9293D02*
D03*
X23501Y9604D02*
D03*
X22204Y10028D02*
D03*
X23507Y17186D02*
D03*
X8244Y5302D02*
D03*
X8612D02*
D03*
X23294Y10770D02*
D03*
X9598Y15846D02*
D03*
X9182Y15839D02*
D03*
X8743Y15840D02*
D03*
X9603Y16269D02*
D03*
X9166D02*
D03*
X8745D02*
D03*
X21600Y11263D02*
D03*
X21542Y10957D02*
D03*
X36400Y15600D02*
D03*
X36337Y12452D02*
D03*
X18200Y1300D02*
D03*
X17650D02*
D03*
X18200Y1700D02*
D03*
X17650D02*
D03*
X27683Y13585D02*
D03*
X23525Y18950D02*
D03*
X29250Y21000D02*
D03*
X27696D02*
D03*
X26190D02*
D03*
X13177Y20952D02*
D03*
Y24924D02*
D03*
X11668Y24919D02*
D03*
X1200Y15400D02*
D03*
X700D02*
D03*
X1200Y15850D02*
D03*
X700D02*
D03*
X5850Y10374D02*
D03*
X5400D02*
D03*
X5850Y10724D02*
D03*
X5400D02*
D03*
X27700Y3250D02*
D03*
X26290Y3251D02*
D03*
X27401Y4489D02*
D03*
X26680Y4502D02*
D03*
X25950Y4500D02*
D03*
X25200D02*
D03*
X34750Y8000D02*
D03*
X36337Y11852D02*
D03*
X36400Y15000D02*
D03*
X33296Y20668D02*
D03*
X33350Y19650D02*
D03*
X33347Y18618D02*
D03*
X47199Y14750D02*
D03*
Y11750D02*
D03*
X46449Y10250D02*
D03*
Y1250D02*
D03*
X44949Y7250D02*
D03*
X45699Y5750D02*
D03*
X44949Y4250D02*
D03*
X45699Y2750D02*
D03*
X44949Y1250D02*
D03*
X43449Y13250D02*
D03*
X44199Y11750D02*
D03*
Y8750D02*
D03*
X43449Y7250D02*
D03*
X44199Y5750D02*
D03*
Y2750D02*
D03*
X43449Y1250D02*
D03*
X42699Y14750D02*
D03*
X41949Y7250D02*
D03*
X42699Y2750D02*
D03*
X41199Y14750D02*
D03*
Y11750D02*
D03*
X40449Y10250D02*
D03*
Y7250D02*
D03*
Y1250D02*
D03*
X72798Y21703D02*
D03*
X69439Y6604D02*
D03*
X63878Y18618D02*
D03*
X63896Y11272D02*
D03*
X63898Y15095D02*
D03*
X63089Y15211D02*
D03*
X63082Y13360D02*
D03*
X51118Y7307D02*
D03*
X51456Y7296D02*
D03*
X51455Y7633D02*
D03*
X51124D02*
D03*
X69693Y9306D02*
D03*
X67222Y9790D02*
D03*
X67228Y11274D02*
D03*
X67237Y18877D02*
D03*
X67241Y17330D02*
D03*
X67238Y15089D02*
D03*
X62272Y19328D02*
D03*
X62283Y9291D02*
D03*
X62755Y9293D02*
D03*
X63050Y9604D02*
D03*
X61753Y10028D02*
D03*
X63056Y17186D02*
D03*
X47792Y5302D02*
D03*
X48161D02*
D03*
X62843Y10770D02*
D03*
X49147Y15846D02*
D03*
X48731Y15839D02*
D03*
X48292Y15840D02*
D03*
X49152Y16269D02*
D03*
X48715D02*
D03*
X48294D02*
D03*
X61148Y11263D02*
D03*
X61091Y10957D02*
D03*
X75949Y15600D02*
D03*
X75886Y12452D02*
D03*
X57749Y1300D02*
D03*
X57199D02*
D03*
X57749Y1700D02*
D03*
X57199D02*
D03*
X67232Y13585D02*
D03*
X63074Y18950D02*
D03*
X68799Y21000D02*
D03*
X67245D02*
D03*
X65739D02*
D03*
X52726Y20952D02*
D03*
Y24924D02*
D03*
X51217Y24919D02*
D03*
X40749Y15400D02*
D03*
X40249D02*
D03*
X40749Y15850D02*
D03*
X40249D02*
D03*
X45399Y10374D02*
D03*
X44949D02*
D03*
X45399Y10724D02*
D03*
X44949D02*
D03*
X67249Y3250D02*
D03*
X65839Y3251D02*
D03*
X66950Y4489D02*
D03*
X66229Y4502D02*
D03*
X65499Y4500D02*
D03*
X64749D02*
D03*
X74299Y8000D02*
D03*
X75886Y11852D02*
D03*
X75949Y15000D02*
D03*
X72845Y20668D02*
D03*
X72899Y19650D02*
D03*
X72896Y18618D02*
D03*
X7650Y40450D02*
D03*
Y37450D02*
D03*
X6900Y35950D02*
D03*
Y26950D02*
D03*
X5400Y32950D02*
D03*
X6150Y31450D02*
D03*
X5400Y29950D02*
D03*
X6150Y28450D02*
D03*
X5400Y26950D02*
D03*
X3900Y38950D02*
D03*
X4650Y37450D02*
D03*
Y34450D02*
D03*
X3900Y32950D02*
D03*
X4650Y31450D02*
D03*
Y28450D02*
D03*
X3900Y26950D02*
D03*
X3150Y40450D02*
D03*
X2400Y32950D02*
D03*
X3150Y28450D02*
D03*
X1650Y40450D02*
D03*
Y37450D02*
D03*
X900Y35950D02*
D03*
Y32950D02*
D03*
Y26950D02*
D03*
X33249Y47403D02*
D03*
X29890Y32305D02*
D03*
X24330Y44318D02*
D03*
X24347Y36972D02*
D03*
X24349Y40795D02*
D03*
X23540Y40912D02*
D03*
X23533Y39061D02*
D03*
X11569Y33008D02*
D03*
X11907Y32996D02*
D03*
X11906Y33333D02*
D03*
X11575D02*
D03*
X30144Y35006D02*
D03*
X27673Y35490D02*
D03*
X27680Y36975D02*
D03*
X27688Y44578D02*
D03*
X27692Y43031D02*
D03*
X27690Y40790D02*
D03*
X22723Y45029D02*
D03*
X22734Y34991D02*
D03*
X23206Y34994D02*
D03*
X23501Y35304D02*
D03*
X22204Y35728D02*
D03*
X23507Y42886D02*
D03*
X8244Y31003D02*
D03*
X8612D02*
D03*
X23294Y36470D02*
D03*
X9598Y41546D02*
D03*
X9182Y41539D02*
D03*
X8743Y41541D02*
D03*
X9603Y41969D02*
D03*
X9166D02*
D03*
X8745D02*
D03*
X21600Y36963D02*
D03*
X21542Y36657D02*
D03*
X36400Y41300D02*
D03*
X36337Y38152D02*
D03*
X18200Y27000D02*
D03*
X17650D02*
D03*
X18200Y27400D02*
D03*
X17650D02*
D03*
X27683Y39286D02*
D03*
X23525Y44650D02*
D03*
X29250Y46700D02*
D03*
X27696D02*
D03*
X26190D02*
D03*
X13177Y46652D02*
D03*
Y50624D02*
D03*
X11668Y50619D02*
D03*
X1200Y41100D02*
D03*
X700D02*
D03*
X1200Y41550D02*
D03*
X700D02*
D03*
X5850Y36075D02*
D03*
X5400D02*
D03*
X5850Y36425D02*
D03*
X5400D02*
D03*
X27700Y28950D02*
D03*
X26290Y28951D02*
D03*
X27401Y30189D02*
D03*
X26680Y30202D02*
D03*
X25950Y30200D02*
D03*
X25200D02*
D03*
X34750Y33700D02*
D03*
X36337Y37552D02*
D03*
X36400Y40700D02*
D03*
X33296Y46369D02*
D03*
X33350Y45350D02*
D03*
X33347Y44318D02*
D03*
X47199Y40450D02*
D03*
Y37450D02*
D03*
X46449Y35950D02*
D03*
Y26950D02*
D03*
X44949Y32950D02*
D03*
X45699Y31450D02*
D03*
X44949Y29950D02*
D03*
X45699Y28450D02*
D03*
X44949Y26950D02*
D03*
X43449Y38950D02*
D03*
X44199Y37450D02*
D03*
Y34450D02*
D03*
X43449Y32950D02*
D03*
X44199Y31450D02*
D03*
Y28450D02*
D03*
X43449Y26950D02*
D03*
X42699Y40450D02*
D03*
X41949Y32950D02*
D03*
X42699Y28450D02*
D03*
X41199Y40450D02*
D03*
Y37450D02*
D03*
X40449Y35950D02*
D03*
Y32950D02*
D03*
Y26950D02*
D03*
X72798Y47403D02*
D03*
X69439Y32305D02*
D03*
X63878Y44318D02*
D03*
X63896Y36972D02*
D03*
X63898Y40795D02*
D03*
X63089Y40912D02*
D03*
X63082Y39061D02*
D03*
X51118Y33008D02*
D03*
X51456Y32996D02*
D03*
X51455Y33333D02*
D03*
X51124D02*
D03*
X69693Y35006D02*
D03*
X67222Y35490D02*
D03*
X67228Y36975D02*
D03*
X67237Y44578D02*
D03*
X67241Y43031D02*
D03*
X67238Y40790D02*
D03*
X62272Y45029D02*
D03*
X62283Y34991D02*
D03*
X62755Y34994D02*
D03*
X63050Y35304D02*
D03*
X61753Y35728D02*
D03*
X63056Y42886D02*
D03*
X47792Y31003D02*
D03*
X48161D02*
D03*
X62843Y36470D02*
D03*
X49147Y41546D02*
D03*
X48731Y41539D02*
D03*
X48292Y41541D02*
D03*
X49152Y41969D02*
D03*
X48715D02*
D03*
X48294D02*
D03*
X61148Y36963D02*
D03*
X61091Y36657D02*
D03*
X75949Y41300D02*
D03*
X75886Y38152D02*
D03*
X57749Y27000D02*
D03*
X57199D02*
D03*
X57749Y27400D02*
D03*
X57199D02*
D03*
X67232Y39286D02*
D03*
X63074Y44650D02*
D03*
X68799Y46700D02*
D03*
X67245D02*
D03*
X65739D02*
D03*
X52726Y46652D02*
D03*
Y50624D02*
D03*
X51217Y50619D02*
D03*
X40749Y41100D02*
D03*
X40249D02*
D03*
X40749Y41550D02*
D03*
X40249D02*
D03*
X45399Y36075D02*
D03*
X44949D02*
D03*
X45399Y36425D02*
D03*
X44949D02*
D03*
X67249Y28950D02*
D03*
X65839Y28951D02*
D03*
X66950Y30189D02*
D03*
X66229Y30202D02*
D03*
X65499Y30200D02*
D03*
X64749D02*
D03*
X74299Y33700D02*
D03*
X75886Y37552D02*
D03*
X75949Y40700D02*
D03*
X72845Y46369D02*
D03*
X72899Y45350D02*
D03*
X72896Y44318D02*
D03*
M02*
