G04*
G04 #@! TF.GenerationSoftware,Altium Limited,Altium Designer,20.0.13 (296)*
G04*
G04 Layer_Color=16711935*
%FSLAX24Y24*%
%MOIN*%
G70*
G01*
G75*
%ADD34C,0.0100*%
D34*
X0Y0D02*
X78900D01*
X0Y51300D02*
X79050D01*
X78700D02*
X79400D01*
X80700D01*
X79400Y0D02*
X80700D01*
X78700D02*
X79400D01*
X80700Y51300D02*
X80700Y0D01*
X-1969D02*
Y51300D01*
X-700D02*
X0D01*
X-1969D02*
X-700D01*
X-1969Y0D02*
X-700D01*
X0D01*
X-100Y25600D02*
X39270D01*
X37329Y23682D02*
X37329Y23682D01*
X39270Y0D02*
X39349Y25600D01*
X33900Y25600D02*
X39349D01*
X-100D02*
X-100Y10D01*
Y0D02*
X39270D01*
X39449Y25600D02*
X78819D01*
X76877Y23682D02*
X76877Y23682D01*
X78819Y0D02*
X78897Y25600D01*
X73449Y25600D02*
X78897D01*
X39449D02*
X39449Y10D01*
Y0D02*
X78819D01*
X-100Y51300D02*
X39270D01*
X37329Y49382D02*
X37329Y49382D01*
X39270Y25700D02*
X39349Y51300D01*
X33900Y51300D02*
X39349D01*
X-100D02*
X-100Y25710D01*
Y25700D02*
X39270D01*
X39449Y51300D02*
X78819D01*
X76877Y49382D02*
X76877Y49382D01*
X78819Y25700D02*
X78897Y51300D01*
X73449Y51300D02*
X78897D01*
X39449D02*
X39449Y25710D01*
Y25700D02*
X78819D01*
X0Y0D02*
X78900D01*
X0Y51300D02*
X79050D01*
X78700D02*
X79400D01*
X80700D01*
X79400Y0D02*
X80700D01*
X78700D02*
X79400D01*
X80700Y51300D02*
X80700Y0D01*
X-1969D02*
Y51300D01*
X-700D02*
X0D01*
X-1969D02*
X-700D01*
X-1969Y0D02*
X-700D01*
X0D01*
X-100Y25600D02*
X39270D01*
X37329Y23682D02*
X37329Y23682D01*
X39270Y0D02*
X39349Y25600D01*
X33900Y25600D02*
X39349D01*
X-100D02*
X-100Y10D01*
Y0D02*
X39270D01*
X39449Y25600D02*
X78819D01*
X76877Y23682D02*
X76877Y23682D01*
X78819Y0D02*
X78897Y25600D01*
X73449Y25600D02*
X78897D01*
X39449D02*
X39449Y10D01*
Y0D02*
X78819D01*
X-100Y51300D02*
X39270D01*
X37329Y49382D02*
X37329Y49382D01*
X39270Y25700D02*
X39349Y51300D01*
X33900Y51300D02*
X39349D01*
X-100D02*
X-100Y25710D01*
Y25700D02*
X39270D01*
X39449Y51300D02*
X78819D01*
X76877Y49382D02*
X76877Y49382D01*
X78819Y25700D02*
X78897Y51300D01*
X73449Y51300D02*
X78897D01*
X39449D02*
X39449Y25710D01*
Y25700D02*
X78819D01*
M02*
