G04*
G04 #@! TF.GenerationSoftware,Altium Limited,Altium Designer,20.0.13 (296)*
G04*
G04 Layer_Color=8421504*
%FSLAX24Y24*%
%MOIN*%
G70*
G01*
G75*
%ADD10C,0.0394*%
%ADD11O,0.0787X0.0236*%
%ADD12R,0.0394X0.0394*%
%ADD13R,0.0394X0.0394*%
%ADD14R,0.0846X0.0650*%
%ADD15R,0.0650X0.0846*%
%ADD16R,0.0846X0.0886*%
%ADD17O,0.0571X0.0453*%
%ADD18R,0.3543X0.2362*%
%ADD19R,0.1969X0.3150*%
%ADD20R,0.0827X0.0413*%
%ADD21R,0.1457X0.0591*%
%ADD22R,0.0315X0.0299*%
%ADD23O,0.0453X0.0571*%
%ADD24R,0.0768X0.0984*%
%ADD25R,0.0886X0.0846*%
%ADD26O,0.0236X0.0787*%
%ADD27R,0.3307X0.4134*%
%ADD28R,0.1102X0.0413*%
%ADD29R,0.0630X0.0787*%
%ADD30R,0.0299X0.0315*%
%ADD31C,0.0060*%
%ADD34C,0.0100*%
%ADD35C,0.0150*%
D10*
X79400Y2000D02*
D03*
X-650Y2100D02*
D03*
X-900Y49150D02*
D03*
D11*
X27025Y9800D02*
D03*
Y10300D02*
D03*
Y10800D02*
D03*
Y11300D02*
D03*
X25076Y9800D02*
D03*
Y10300D02*
D03*
Y10800D02*
D03*
Y11300D02*
D03*
X26975Y13575D02*
D03*
Y14075D02*
D03*
Y14575D02*
D03*
Y15075D02*
D03*
X25026Y13575D02*
D03*
Y14075D02*
D03*
Y14575D02*
D03*
Y15075D02*
D03*
X26875Y17350D02*
D03*
Y17850D02*
D03*
Y18350D02*
D03*
Y18850D02*
D03*
X24926Y17350D02*
D03*
Y17850D02*
D03*
Y18350D02*
D03*
Y18850D02*
D03*
X14926Y3415D02*
D03*
Y2915D02*
D03*
Y2415D02*
D03*
Y1915D02*
D03*
X16875Y3415D02*
D03*
Y2915D02*
D03*
Y2415D02*
D03*
Y1915D02*
D03*
X66573Y9800D02*
D03*
Y10300D02*
D03*
Y10800D02*
D03*
Y11300D02*
D03*
X64625Y9800D02*
D03*
Y10300D02*
D03*
Y10800D02*
D03*
Y11300D02*
D03*
X66523Y13575D02*
D03*
Y14075D02*
D03*
Y14575D02*
D03*
Y15075D02*
D03*
X64575Y13575D02*
D03*
Y14075D02*
D03*
Y14575D02*
D03*
Y15075D02*
D03*
X66423Y17350D02*
D03*
Y17850D02*
D03*
Y18350D02*
D03*
Y18850D02*
D03*
X64475Y17350D02*
D03*
Y17850D02*
D03*
Y18350D02*
D03*
Y18850D02*
D03*
X54475Y3415D02*
D03*
Y2915D02*
D03*
Y2415D02*
D03*
Y1915D02*
D03*
X56423Y3415D02*
D03*
Y2915D02*
D03*
Y2415D02*
D03*
Y1915D02*
D03*
X27025Y35500D02*
D03*
Y36000D02*
D03*
Y36500D02*
D03*
Y37000D02*
D03*
X25076Y35500D02*
D03*
Y36000D02*
D03*
Y36500D02*
D03*
Y37000D02*
D03*
X26975Y39275D02*
D03*
Y39775D02*
D03*
Y40275D02*
D03*
Y40775D02*
D03*
X25026Y39275D02*
D03*
Y39775D02*
D03*
Y40275D02*
D03*
Y40775D02*
D03*
X26875Y43050D02*
D03*
Y43550D02*
D03*
Y44050D02*
D03*
Y44550D02*
D03*
X24926Y43050D02*
D03*
Y43550D02*
D03*
Y44050D02*
D03*
Y44550D02*
D03*
X14926Y29115D02*
D03*
Y28615D02*
D03*
Y28115D02*
D03*
Y27615D02*
D03*
X16875Y29115D02*
D03*
Y28615D02*
D03*
Y28115D02*
D03*
Y27615D02*
D03*
X66573Y35500D02*
D03*
Y36000D02*
D03*
Y36500D02*
D03*
Y37000D02*
D03*
X64625Y35500D02*
D03*
Y36000D02*
D03*
Y36500D02*
D03*
Y37000D02*
D03*
X66523Y39275D02*
D03*
Y39775D02*
D03*
Y40275D02*
D03*
Y40775D02*
D03*
X64575Y39275D02*
D03*
Y39775D02*
D03*
Y40275D02*
D03*
Y40775D02*
D03*
X66423Y43050D02*
D03*
Y43550D02*
D03*
Y44050D02*
D03*
Y44550D02*
D03*
X64475Y43050D02*
D03*
Y43550D02*
D03*
Y44050D02*
D03*
Y44550D02*
D03*
X54475Y29115D02*
D03*
Y28615D02*
D03*
Y28115D02*
D03*
Y27615D02*
D03*
X56423Y29115D02*
D03*
Y28615D02*
D03*
Y28115D02*
D03*
Y27615D02*
D03*
D12*
X22731Y18381D02*
D03*
X23519D02*
D03*
X22731Y17600D02*
D03*
X23519D02*
D03*
X22731Y14710D02*
D03*
X23519D02*
D03*
X22731Y13910D02*
D03*
X23519D02*
D03*
X22731Y10800D02*
D03*
X23519D02*
D03*
X22731Y10050D02*
D03*
X23519D02*
D03*
X29150Y17650D02*
D03*
X28363D02*
D03*
X29144Y18450D02*
D03*
X28356D02*
D03*
X29150Y14000D02*
D03*
X28363D02*
D03*
X29150Y14800D02*
D03*
X28363D02*
D03*
X29150Y10174D02*
D03*
X28363D02*
D03*
X29150Y10896D02*
D03*
X28363D02*
D03*
X10644Y4100D02*
D03*
X9856D02*
D03*
X7265Y6200D02*
D03*
X6478D02*
D03*
X15100Y12500D02*
D03*
X14313D02*
D03*
X16455Y4495D02*
D03*
X17243D02*
D03*
X8444Y21200D02*
D03*
X7656D02*
D03*
Y22050D02*
D03*
X8444D02*
D03*
X62280Y18381D02*
D03*
X63067D02*
D03*
X62280Y17600D02*
D03*
X63067D02*
D03*
X62280Y14710D02*
D03*
X63067D02*
D03*
X62280Y13910D02*
D03*
X63067D02*
D03*
X62280Y10800D02*
D03*
X63067D02*
D03*
X62280Y10050D02*
D03*
X63067D02*
D03*
X68699Y17650D02*
D03*
X67912D02*
D03*
X68693Y18450D02*
D03*
X67905D02*
D03*
X68699Y14000D02*
D03*
X67912D02*
D03*
X68699Y14800D02*
D03*
X67912D02*
D03*
X68699Y10174D02*
D03*
X67912D02*
D03*
X68699Y10896D02*
D03*
X67912D02*
D03*
X50193Y4100D02*
D03*
X49405D02*
D03*
X46814Y6200D02*
D03*
X46027D02*
D03*
X54649Y12500D02*
D03*
X53862D02*
D03*
X56004Y4495D02*
D03*
X56791D02*
D03*
X47993Y21200D02*
D03*
X47205D02*
D03*
Y22050D02*
D03*
X47993D02*
D03*
X22731Y44081D02*
D03*
X23519D02*
D03*
X22731Y43300D02*
D03*
X23519D02*
D03*
X22731Y40411D02*
D03*
X23519D02*
D03*
X22731Y39611D02*
D03*
X23519D02*
D03*
X22731Y36500D02*
D03*
X23519D02*
D03*
X22731Y35750D02*
D03*
X23519D02*
D03*
X29150Y43350D02*
D03*
X28363D02*
D03*
X29144Y44150D02*
D03*
X28356D02*
D03*
X29150Y39700D02*
D03*
X28363D02*
D03*
X29150Y40500D02*
D03*
X28363D02*
D03*
X29150Y35874D02*
D03*
X28363D02*
D03*
X29150Y36597D02*
D03*
X28363D02*
D03*
X10644Y29800D02*
D03*
X9856D02*
D03*
X7265Y31900D02*
D03*
X6478D02*
D03*
X15100Y38200D02*
D03*
X14313D02*
D03*
X16455Y30196D02*
D03*
X17243D02*
D03*
X8444Y46900D02*
D03*
X7656D02*
D03*
Y47750D02*
D03*
X8444D02*
D03*
X62280Y44081D02*
D03*
X63067D02*
D03*
X62280Y43300D02*
D03*
X63067D02*
D03*
X62280Y40411D02*
D03*
X63067D02*
D03*
X62280Y39611D02*
D03*
X63067D02*
D03*
X62280Y36500D02*
D03*
X63067D02*
D03*
X62280Y35750D02*
D03*
X63067D02*
D03*
X68699Y43350D02*
D03*
X67912D02*
D03*
X68693Y44150D02*
D03*
X67905D02*
D03*
X68699Y39700D02*
D03*
X67912D02*
D03*
X68699Y40500D02*
D03*
X67912D02*
D03*
X68699Y35874D02*
D03*
X67912D02*
D03*
X68699Y36597D02*
D03*
X67912D02*
D03*
X50193Y29800D02*
D03*
X49405D02*
D03*
X46814Y31900D02*
D03*
X46027D02*
D03*
X54649Y38200D02*
D03*
X53862D02*
D03*
X56004Y30196D02*
D03*
X56791D02*
D03*
X47993Y46900D02*
D03*
X47205D02*
D03*
Y47750D02*
D03*
X47993D02*
D03*
D13*
X9250Y20094D02*
D03*
Y19306D02*
D03*
Y15350D02*
D03*
Y14563D02*
D03*
X27400Y3256D02*
D03*
Y4044D02*
D03*
X25200Y3256D02*
D03*
Y4044D02*
D03*
X25933Y3256D02*
D03*
Y4044D02*
D03*
X26667Y3256D02*
D03*
Y4044D02*
D03*
X18000Y2263D02*
D03*
Y3050D02*
D03*
X8400Y4888D02*
D03*
Y4100D02*
D03*
X12600Y9738D02*
D03*
Y8950D02*
D03*
X35200Y4913D02*
D03*
Y5700D02*
D03*
Y8006D02*
D03*
Y8794D02*
D03*
X48799Y20094D02*
D03*
Y19306D02*
D03*
Y15350D02*
D03*
Y14563D02*
D03*
X66949Y3256D02*
D03*
Y4044D02*
D03*
X64749Y3256D02*
D03*
Y4044D02*
D03*
X65482Y3256D02*
D03*
Y4044D02*
D03*
X66216Y3256D02*
D03*
Y4044D02*
D03*
X57549Y2263D02*
D03*
Y3050D02*
D03*
X47949Y4888D02*
D03*
Y4100D02*
D03*
X52149Y9738D02*
D03*
Y8950D02*
D03*
X74749Y4913D02*
D03*
Y5700D02*
D03*
Y8006D02*
D03*
Y8794D02*
D03*
X9250Y45794D02*
D03*
Y45007D02*
D03*
Y41050D02*
D03*
Y40263D02*
D03*
X27400Y28957D02*
D03*
Y29744D02*
D03*
X25200Y28957D02*
D03*
Y29744D02*
D03*
X25933Y28957D02*
D03*
Y29744D02*
D03*
X26667Y28957D02*
D03*
Y29744D02*
D03*
X18000Y27963D02*
D03*
Y28750D02*
D03*
X8400Y30588D02*
D03*
Y29800D02*
D03*
X12600Y35438D02*
D03*
Y34650D02*
D03*
X35200Y30613D02*
D03*
Y31400D02*
D03*
Y33707D02*
D03*
Y34494D02*
D03*
X48799Y45794D02*
D03*
Y45007D02*
D03*
Y41050D02*
D03*
Y40263D02*
D03*
X66949Y28957D02*
D03*
Y29744D02*
D03*
X64749Y28957D02*
D03*
Y29744D02*
D03*
X65482Y28957D02*
D03*
Y29744D02*
D03*
X66216Y28957D02*
D03*
Y29744D02*
D03*
X57549Y27963D02*
D03*
Y28750D02*
D03*
X47949Y30588D02*
D03*
Y29800D02*
D03*
X52149Y35438D02*
D03*
Y34650D02*
D03*
X74749Y30613D02*
D03*
Y31400D02*
D03*
Y33707D02*
D03*
Y34494D02*
D03*
D14*
X7942Y20241D02*
D03*
Y19060D02*
D03*
X47491Y20241D02*
D03*
Y19060D02*
D03*
X7942Y45941D02*
D03*
Y44760D02*
D03*
X47491Y45941D02*
D03*
Y44760D02*
D03*
D15*
X7410Y17600D02*
D03*
X8591D02*
D03*
X11560Y4092D02*
D03*
X12741D02*
D03*
X7787Y7450D02*
D03*
X6606D02*
D03*
X46958Y17600D02*
D03*
X48139D02*
D03*
X51108Y4092D02*
D03*
X52289D02*
D03*
X47336Y7450D02*
D03*
X46155D02*
D03*
X7410Y43300D02*
D03*
X8591D02*
D03*
X11560Y29792D02*
D03*
X12741D02*
D03*
X7787Y33150D02*
D03*
X6606D02*
D03*
X46958Y43300D02*
D03*
X48139D02*
D03*
X51108Y29792D02*
D03*
X52289D02*
D03*
X47336Y33150D02*
D03*
X46155D02*
D03*
D16*
X7950Y15965D02*
D03*
Y14036D02*
D03*
X47499Y15965D02*
D03*
Y14036D02*
D03*
X7950Y41665D02*
D03*
Y39736D02*
D03*
X47499Y41665D02*
D03*
Y39736D02*
D03*
D17*
X6543Y14420D02*
D03*
Y13691D02*
D03*
Y15577D02*
D03*
Y16305D02*
D03*
X29200Y24314D02*
D03*
Y23586D02*
D03*
X26180Y23565D02*
D03*
Y24294D02*
D03*
X27670Y23565D02*
D03*
Y24294D02*
D03*
X13155Y23517D02*
D03*
Y24245D02*
D03*
X11665Y23517D02*
D03*
Y24245D02*
D03*
X46092Y14420D02*
D03*
Y13691D02*
D03*
Y15577D02*
D03*
Y16305D02*
D03*
X68749Y24314D02*
D03*
Y23586D02*
D03*
X65729Y23565D02*
D03*
Y24294D02*
D03*
X67219Y23565D02*
D03*
Y24294D02*
D03*
X52704Y23517D02*
D03*
Y24245D02*
D03*
X51214Y23517D02*
D03*
Y24245D02*
D03*
X6543Y40120D02*
D03*
Y39392D02*
D03*
Y41277D02*
D03*
Y42006D02*
D03*
X29200Y50015D02*
D03*
Y49286D02*
D03*
X26180Y49266D02*
D03*
Y49994D02*
D03*
X27670Y49266D02*
D03*
Y49994D02*
D03*
X13155Y49217D02*
D03*
Y49946D02*
D03*
X11665Y49217D02*
D03*
Y49946D02*
D03*
X46092Y40120D02*
D03*
Y39392D02*
D03*
Y41277D02*
D03*
Y42006D02*
D03*
X68749Y50015D02*
D03*
Y49286D02*
D03*
X65729Y49266D02*
D03*
Y49994D02*
D03*
X67219Y49266D02*
D03*
Y49994D02*
D03*
X52704Y49217D02*
D03*
Y49946D02*
D03*
X51214Y49217D02*
D03*
Y49946D02*
D03*
D18*
X2187Y4950D02*
D03*
Y8850D02*
D03*
X41736Y4950D02*
D03*
Y8850D02*
D03*
X2187Y30650D02*
D03*
Y34550D02*
D03*
X41736Y30650D02*
D03*
Y34550D02*
D03*
D19*
X9914Y10700D02*
D03*
X49462D02*
D03*
X9914Y36400D02*
D03*
X49462D02*
D03*
D20*
X6587Y9700D02*
D03*
Y10700D02*
D03*
Y11700D02*
D03*
X46136Y9700D02*
D03*
Y10700D02*
D03*
Y11700D02*
D03*
X6587Y35400D02*
D03*
Y36400D02*
D03*
Y37400D02*
D03*
X46136Y35400D02*
D03*
Y36400D02*
D03*
Y37400D02*
D03*
D21*
X7010Y3886D02*
D03*
Y5106D02*
D03*
X46559Y3886D02*
D03*
Y5106D02*
D03*
X7010Y29586D02*
D03*
Y30807D02*
D03*
X46559Y29586D02*
D03*
Y30807D02*
D03*
D22*
X19045Y6942D02*
D03*
Y6344D02*
D03*
X36814Y12425D02*
D03*
Y11827D02*
D03*
X36800Y15599D02*
D03*
Y15000D02*
D03*
X26200Y21999D02*
D03*
Y21401D02*
D03*
X27700Y21999D02*
D03*
Y21401D02*
D03*
X29250Y22049D02*
D03*
Y21451D02*
D03*
X13165Y21951D02*
D03*
Y21353D02*
D03*
X11665Y21951D02*
D03*
Y21353D02*
D03*
X58593Y6942D02*
D03*
Y6344D02*
D03*
X76363Y12425D02*
D03*
Y11827D02*
D03*
X76349Y15599D02*
D03*
Y15000D02*
D03*
X65749Y21999D02*
D03*
Y21401D02*
D03*
X67249Y21999D02*
D03*
Y21401D02*
D03*
X68799Y22049D02*
D03*
Y21451D02*
D03*
X52714Y21951D02*
D03*
Y21353D02*
D03*
X51214Y21951D02*
D03*
Y21353D02*
D03*
X19045Y32642D02*
D03*
Y32044D02*
D03*
X36814Y38126D02*
D03*
Y37527D02*
D03*
X36800Y41299D02*
D03*
Y40700D02*
D03*
X26200Y47700D02*
D03*
Y47101D02*
D03*
X27700Y47700D02*
D03*
Y47101D02*
D03*
X29250Y47750D02*
D03*
Y47151D02*
D03*
X13165Y47651D02*
D03*
Y47053D02*
D03*
X11665Y47651D02*
D03*
Y47053D02*
D03*
X58593Y32642D02*
D03*
Y32044D02*
D03*
X76363Y38126D02*
D03*
Y37527D02*
D03*
X76349Y41299D02*
D03*
Y40700D02*
D03*
X65749Y47700D02*
D03*
Y47101D02*
D03*
X67249Y47700D02*
D03*
Y47101D02*
D03*
X68799Y47750D02*
D03*
Y47151D02*
D03*
X52714Y47651D02*
D03*
Y47053D02*
D03*
X51214Y47651D02*
D03*
Y47053D02*
D03*
D23*
X14715Y4430D02*
D03*
X15443D02*
D03*
X54263D02*
D03*
X54992D02*
D03*
X14715Y30130D02*
D03*
X15443D02*
D03*
X54263D02*
D03*
X54992D02*
D03*
D24*
X12680Y11100D02*
D03*
X15416D02*
D03*
X4668Y15650D02*
D03*
X1932D02*
D03*
X52228Y11100D02*
D03*
X54965D02*
D03*
X44217Y15650D02*
D03*
X41481D02*
D03*
X12680Y36800D02*
D03*
X15416D02*
D03*
X4668Y41350D02*
D03*
X1932D02*
D03*
X52228Y36800D02*
D03*
X54965D02*
D03*
X44217Y41350D02*
D03*
X41481D02*
D03*
D25*
X15015Y6250D02*
D03*
X13086D02*
D03*
X54563D02*
D03*
X52634D02*
D03*
X15015Y31950D02*
D03*
X13086D02*
D03*
X54563D02*
D03*
X52634D02*
D03*
D26*
X13600Y7676D02*
D03*
X14100D02*
D03*
X14600D02*
D03*
X15100D02*
D03*
X13600Y9625D02*
D03*
X14100D02*
D03*
X14600D02*
D03*
X15100D02*
D03*
X53149Y7676D02*
D03*
X53649D02*
D03*
X54149D02*
D03*
X54649D02*
D03*
X53149Y9625D02*
D03*
X53649D02*
D03*
X54149D02*
D03*
X54649D02*
D03*
X13600Y33376D02*
D03*
X14100D02*
D03*
X14600D02*
D03*
X15100D02*
D03*
X13600Y35325D02*
D03*
X14100D02*
D03*
X14600D02*
D03*
X15100D02*
D03*
X53149Y33376D02*
D03*
X53649D02*
D03*
X54149D02*
D03*
X54649D02*
D03*
X53149Y35325D02*
D03*
X53649D02*
D03*
X54149D02*
D03*
X54649D02*
D03*
D27*
X2179Y19361D02*
D03*
X41727D02*
D03*
X2179Y45061D02*
D03*
X41727D02*
D03*
D28*
X5978Y20699D02*
D03*
Y20030D02*
D03*
Y19361D02*
D03*
Y18691D02*
D03*
Y18022D02*
D03*
X45527Y20699D02*
D03*
Y20030D02*
D03*
Y19361D02*
D03*
Y18691D02*
D03*
Y18022D02*
D03*
X5978Y46400D02*
D03*
Y45730D02*
D03*
Y45061D02*
D03*
Y44392D02*
D03*
Y43723D02*
D03*
X45527Y46400D02*
D03*
Y45730D02*
D03*
Y45061D02*
D03*
Y44392D02*
D03*
Y43723D02*
D03*
D29*
X36432Y4923D02*
D03*
Y6577D02*
D03*
X75981Y4923D02*
D03*
Y6577D02*
D03*
X36432Y30624D02*
D03*
Y32277D02*
D03*
X75981Y30624D02*
D03*
Y32277D02*
D03*
D30*
X33748Y18618D02*
D03*
X34347D02*
D03*
X34349Y19650D02*
D03*
X33751D02*
D03*
X33744Y21731D02*
D03*
X34342D02*
D03*
X33746Y20676D02*
D03*
X34344D02*
D03*
X73297Y18618D02*
D03*
X73895D02*
D03*
X73898Y19650D02*
D03*
X73300D02*
D03*
X73292Y21731D02*
D03*
X73891D02*
D03*
X73295Y20676D02*
D03*
X73893D02*
D03*
X33748Y44318D02*
D03*
X34347D02*
D03*
X34349Y45350D02*
D03*
X33751D02*
D03*
X33744Y47431D02*
D03*
X34342D02*
D03*
X33746Y46376D02*
D03*
X34344D02*
D03*
X73297Y44318D02*
D03*
X73895D02*
D03*
X73898Y45350D02*
D03*
X73300D02*
D03*
X73292Y47431D02*
D03*
X73891D02*
D03*
X73295Y46376D02*
D03*
X73893D02*
D03*
D31*
X36800Y12400D02*
X38150D01*
X76349D02*
X77699D01*
X36800Y38100D02*
X38150D01*
X76349D02*
X77699D01*
D34*
X0Y0D02*
X78900D01*
X0Y51300D02*
X79050D01*
X78700D02*
X79400D01*
X80700D01*
X79400Y0D02*
X80700D01*
X78700D02*
X79400D01*
X80700Y51300D02*
X80700Y0D01*
X-1969D02*
Y51300D01*
X-700D02*
X0D01*
X-1969D02*
X-700D01*
X-1969Y0D02*
X-700D01*
X0D01*
X-100Y25600D02*
X39270D01*
X37329Y23682D02*
X37329Y23682D01*
X39270Y0D02*
X39349Y25600D01*
X33900Y25600D02*
X39349D01*
X-100D02*
X-100Y10D01*
Y0D02*
X39270D01*
X39449Y25600D02*
X78819D01*
X76877Y23682D02*
X76877Y23682D01*
X78819Y0D02*
X78897Y25600D01*
X73449Y25600D02*
X78897D01*
X39449D02*
X39449Y10D01*
Y0D02*
X78819D01*
X-100Y51300D02*
X39270D01*
X37329Y49382D02*
X37329Y49382D01*
X39270Y25700D02*
X39349Y51300D01*
X33900Y51300D02*
X39349D01*
X-100D02*
X-100Y25710D01*
Y25700D02*
X39270D01*
X39449Y51300D02*
X78819D01*
X76877Y49382D02*
X76877Y49382D01*
X78819Y25700D02*
X78897Y51300D01*
X73449Y51300D02*
X78897D01*
X39449D02*
X39449Y25710D01*
Y25700D02*
X78819D01*
D35*
X14600Y9000D02*
Y9350D01*
Y8600D02*
Y9000D01*
Y8250D02*
Y8600D01*
Y7900D02*
Y8250D01*
X54149Y9000D02*
Y9350D01*
Y8600D02*
Y9000D01*
Y8250D02*
Y8600D01*
Y7900D02*
Y8250D01*
X14600Y34700D02*
Y35050D01*
Y34300D02*
Y34700D01*
Y33950D02*
Y34300D01*
Y33600D02*
Y33950D01*
X54149Y34700D02*
Y35050D01*
Y34300D02*
Y34700D01*
Y33950D02*
Y34300D01*
Y33600D02*
Y33950D01*
M02*
