G04*
G04 #@! TF.GenerationSoftware,Altium Limited,Altium Designer,20.0.13 (296)*
G04*
G04 Layer_Color=8388736*
%FSLAX24Y24*%
%MOIN*%
G70*
G01*
G75*
%ADD34C,0.0100*%
%ADD73C,0.0474*%
%ADD74O,0.0867X0.0316*%
%ADD75R,0.0474X0.0474*%
%ADD76R,0.0474X0.0474*%
%ADD77R,0.0926X0.0730*%
%ADD78R,0.0730X0.0926*%
%ADD79R,0.0926X0.0966*%
%ADD80O,0.0651X0.0533*%
%ADD81R,0.3623X0.2442*%
%ADD82R,0.2049X0.3230*%
%ADD83R,0.0907X0.0493*%
%ADD84R,0.1537X0.0671*%
%ADD85R,0.0395X0.0379*%
%ADD86O,0.0533X0.0651*%
%ADD87R,0.0848X0.1064*%
%ADD88R,0.0966X0.0926*%
%ADD89O,0.0316X0.0867*%
%ADD90R,0.3387X0.4214*%
%ADD91R,0.1182X0.0493*%
%ADD92R,0.0710X0.0867*%
%ADD93R,0.0379X0.0395*%
%ADD94C,0.1261*%
%ADD95C,0.0310*%
%ADD96C,0.2080*%
%ADD97C,0.0671*%
%ADD98R,0.0671X0.0671*%
%ADD99C,0.0671*%
%ADD100R,0.0671X0.0671*%
%ADD101C,0.1458*%
%ADD102C,0.0680*%
%ADD103O,0.0867X0.0474*%
%ADD104O,0.0867X0.0474*%
%ADD105O,0.1080X0.0580*%
%ADD106O,0.0552X0.0434*%
%ADD107C,0.0300*%
D34*
X0Y0D02*
X78900D01*
X0Y51300D02*
X79050D01*
X78700D02*
X79400D01*
X80700D01*
X79400Y0D02*
X80700D01*
X78700D02*
X79400D01*
X80700Y51300D02*
X80700Y0D01*
X-1969D02*
Y51300D01*
X-700D02*
X0D01*
X-1969D02*
X-700D01*
X-1969Y0D02*
X-700D01*
X0D01*
X-100Y25600D02*
X39270D01*
X37329Y23682D02*
X37329Y23682D01*
X39270Y0D02*
X39349Y25600D01*
X33900Y25600D02*
X39349D01*
X-100D02*
X-100Y10D01*
Y0D02*
X39270D01*
X39449Y25600D02*
X78819D01*
X76877Y23682D02*
X76877Y23682D01*
X78819Y0D02*
X78897Y25600D01*
X73449Y25600D02*
X78897D01*
X39449D02*
X39449Y10D01*
Y0D02*
X78819D01*
X-100Y51300D02*
X39270D01*
X37329Y49382D02*
X37329Y49382D01*
X39270Y25700D02*
X39349Y51300D01*
X33900Y51300D02*
X39349D01*
X-100D02*
X-100Y25710D01*
Y25700D02*
X39270D01*
X39449Y51300D02*
X78819D01*
X76877Y49382D02*
X76877Y49382D01*
X78819Y25700D02*
X78897Y51300D01*
X73449Y51300D02*
X78897D01*
X39449D02*
X39449Y25710D01*
Y25700D02*
X78819D01*
D73*
X79400Y2000D02*
D03*
X-650Y2100D02*
D03*
X-900Y49150D02*
D03*
D74*
X27025Y9800D02*
D03*
Y10300D02*
D03*
Y10800D02*
D03*
Y11300D02*
D03*
X25076Y9800D02*
D03*
Y10300D02*
D03*
Y10800D02*
D03*
Y11300D02*
D03*
X26975Y13575D02*
D03*
Y14075D02*
D03*
Y14575D02*
D03*
Y15075D02*
D03*
X25026Y13575D02*
D03*
Y14075D02*
D03*
Y14575D02*
D03*
Y15075D02*
D03*
X26875Y17350D02*
D03*
Y17850D02*
D03*
Y18350D02*
D03*
Y18850D02*
D03*
X24926Y17350D02*
D03*
Y17850D02*
D03*
Y18350D02*
D03*
Y18850D02*
D03*
X14926Y3415D02*
D03*
Y2915D02*
D03*
Y2415D02*
D03*
Y1915D02*
D03*
X16875Y3415D02*
D03*
Y2915D02*
D03*
Y2415D02*
D03*
Y1915D02*
D03*
X66573Y9800D02*
D03*
Y10300D02*
D03*
Y10800D02*
D03*
Y11300D02*
D03*
X64625Y9800D02*
D03*
Y10300D02*
D03*
Y10800D02*
D03*
Y11300D02*
D03*
X66523Y13575D02*
D03*
Y14075D02*
D03*
Y14575D02*
D03*
Y15075D02*
D03*
X64575Y13575D02*
D03*
Y14075D02*
D03*
Y14575D02*
D03*
Y15075D02*
D03*
X66423Y17350D02*
D03*
Y17850D02*
D03*
Y18350D02*
D03*
Y18850D02*
D03*
X64475Y17350D02*
D03*
Y17850D02*
D03*
Y18350D02*
D03*
Y18850D02*
D03*
X54475Y3415D02*
D03*
Y2915D02*
D03*
Y2415D02*
D03*
Y1915D02*
D03*
X56423Y3415D02*
D03*
Y2915D02*
D03*
Y2415D02*
D03*
Y1915D02*
D03*
X27025Y35500D02*
D03*
Y36000D02*
D03*
Y36500D02*
D03*
Y37000D02*
D03*
X25076Y35500D02*
D03*
Y36000D02*
D03*
Y36500D02*
D03*
Y37000D02*
D03*
X26975Y39275D02*
D03*
Y39775D02*
D03*
Y40275D02*
D03*
Y40775D02*
D03*
X25026Y39275D02*
D03*
Y39775D02*
D03*
Y40275D02*
D03*
Y40775D02*
D03*
X26875Y43050D02*
D03*
Y43550D02*
D03*
Y44050D02*
D03*
Y44550D02*
D03*
X24926Y43050D02*
D03*
Y43550D02*
D03*
Y44050D02*
D03*
Y44550D02*
D03*
X14926Y29115D02*
D03*
Y28615D02*
D03*
Y28115D02*
D03*
Y27615D02*
D03*
X16875Y29115D02*
D03*
Y28615D02*
D03*
Y28115D02*
D03*
Y27615D02*
D03*
X66573Y35500D02*
D03*
Y36000D02*
D03*
Y36500D02*
D03*
Y37000D02*
D03*
X64625Y35500D02*
D03*
Y36000D02*
D03*
Y36500D02*
D03*
Y37000D02*
D03*
X66523Y39275D02*
D03*
Y39775D02*
D03*
Y40275D02*
D03*
Y40775D02*
D03*
X64575Y39275D02*
D03*
Y39775D02*
D03*
Y40275D02*
D03*
Y40775D02*
D03*
X66423Y43050D02*
D03*
Y43550D02*
D03*
Y44050D02*
D03*
Y44550D02*
D03*
X64475Y43050D02*
D03*
Y43550D02*
D03*
Y44050D02*
D03*
Y44550D02*
D03*
X54475Y29115D02*
D03*
Y28615D02*
D03*
Y28115D02*
D03*
Y27615D02*
D03*
X56423Y29115D02*
D03*
Y28615D02*
D03*
Y28115D02*
D03*
Y27615D02*
D03*
D75*
X22731Y18381D02*
D03*
X23519D02*
D03*
X22731Y17600D02*
D03*
X23519D02*
D03*
X22731Y14710D02*
D03*
X23519D02*
D03*
X22731Y13910D02*
D03*
X23519D02*
D03*
X22731Y10800D02*
D03*
X23519D02*
D03*
X22731Y10050D02*
D03*
X23519D02*
D03*
X29150Y17650D02*
D03*
X28363D02*
D03*
X29144Y18450D02*
D03*
X28356D02*
D03*
X29150Y14000D02*
D03*
X28363D02*
D03*
X29150Y14800D02*
D03*
X28363D02*
D03*
X29150Y10174D02*
D03*
X28363D02*
D03*
X29150Y10896D02*
D03*
X28363D02*
D03*
X10644Y4100D02*
D03*
X9856D02*
D03*
X7265Y6200D02*
D03*
X6478D02*
D03*
X15100Y12500D02*
D03*
X14313D02*
D03*
X16455Y4495D02*
D03*
X17243D02*
D03*
X8444Y21200D02*
D03*
X7656D02*
D03*
Y22050D02*
D03*
X8444D02*
D03*
X62280Y18381D02*
D03*
X63067D02*
D03*
X62280Y17600D02*
D03*
X63067D02*
D03*
X62280Y14710D02*
D03*
X63067D02*
D03*
X62280Y13910D02*
D03*
X63067D02*
D03*
X62280Y10800D02*
D03*
X63067D02*
D03*
X62280Y10050D02*
D03*
X63067D02*
D03*
X68699Y17650D02*
D03*
X67912D02*
D03*
X68693Y18450D02*
D03*
X67905D02*
D03*
X68699Y14000D02*
D03*
X67912D02*
D03*
X68699Y14800D02*
D03*
X67912D02*
D03*
X68699Y10174D02*
D03*
X67912D02*
D03*
X68699Y10896D02*
D03*
X67912D02*
D03*
X50193Y4100D02*
D03*
X49405D02*
D03*
X46814Y6200D02*
D03*
X46027D02*
D03*
X54649Y12500D02*
D03*
X53862D02*
D03*
X56004Y4495D02*
D03*
X56791D02*
D03*
X47993Y21200D02*
D03*
X47205D02*
D03*
Y22050D02*
D03*
X47993D02*
D03*
X22731Y44081D02*
D03*
X23519D02*
D03*
X22731Y43300D02*
D03*
X23519D02*
D03*
X22731Y40411D02*
D03*
X23519D02*
D03*
X22731Y39611D02*
D03*
X23519D02*
D03*
X22731Y36500D02*
D03*
X23519D02*
D03*
X22731Y35750D02*
D03*
X23519D02*
D03*
X29150Y43350D02*
D03*
X28363D02*
D03*
X29144Y44150D02*
D03*
X28356D02*
D03*
X29150Y39700D02*
D03*
X28363D02*
D03*
X29150Y40500D02*
D03*
X28363D02*
D03*
X29150Y35874D02*
D03*
X28363D02*
D03*
X29150Y36597D02*
D03*
X28363D02*
D03*
X10644Y29800D02*
D03*
X9856D02*
D03*
X7265Y31900D02*
D03*
X6478D02*
D03*
X15100Y38200D02*
D03*
X14313D02*
D03*
X16455Y30196D02*
D03*
X17243D02*
D03*
X8444Y46900D02*
D03*
X7656D02*
D03*
Y47750D02*
D03*
X8444D02*
D03*
X62280Y44081D02*
D03*
X63067D02*
D03*
X62280Y43300D02*
D03*
X63067D02*
D03*
X62280Y40411D02*
D03*
X63067D02*
D03*
X62280Y39611D02*
D03*
X63067D02*
D03*
X62280Y36500D02*
D03*
X63067D02*
D03*
X62280Y35750D02*
D03*
X63067D02*
D03*
X68699Y43350D02*
D03*
X67912D02*
D03*
X68693Y44150D02*
D03*
X67905D02*
D03*
X68699Y39700D02*
D03*
X67912D02*
D03*
X68699Y40500D02*
D03*
X67912D02*
D03*
X68699Y35874D02*
D03*
X67912D02*
D03*
X68699Y36597D02*
D03*
X67912D02*
D03*
X50193Y29800D02*
D03*
X49405D02*
D03*
X46814Y31900D02*
D03*
X46027D02*
D03*
X54649Y38200D02*
D03*
X53862D02*
D03*
X56004Y30196D02*
D03*
X56791D02*
D03*
X47993Y46900D02*
D03*
X47205D02*
D03*
Y47750D02*
D03*
X47993D02*
D03*
D76*
X9250Y20094D02*
D03*
Y19306D02*
D03*
Y15350D02*
D03*
Y14563D02*
D03*
X27400Y3256D02*
D03*
Y4044D02*
D03*
X25200Y3256D02*
D03*
Y4044D02*
D03*
X25933Y3256D02*
D03*
Y4044D02*
D03*
X26667Y3256D02*
D03*
Y4044D02*
D03*
X18000Y2263D02*
D03*
Y3050D02*
D03*
X8400Y4888D02*
D03*
Y4100D02*
D03*
X12600Y9738D02*
D03*
Y8950D02*
D03*
X35200Y4913D02*
D03*
Y5700D02*
D03*
Y8006D02*
D03*
Y8794D02*
D03*
X48799Y20094D02*
D03*
Y19306D02*
D03*
Y15350D02*
D03*
Y14563D02*
D03*
X66949Y3256D02*
D03*
Y4044D02*
D03*
X64749Y3256D02*
D03*
Y4044D02*
D03*
X65482Y3256D02*
D03*
Y4044D02*
D03*
X66216Y3256D02*
D03*
Y4044D02*
D03*
X57549Y2263D02*
D03*
Y3050D02*
D03*
X47949Y4888D02*
D03*
Y4100D02*
D03*
X52149Y9738D02*
D03*
Y8950D02*
D03*
X74749Y4913D02*
D03*
Y5700D02*
D03*
Y8006D02*
D03*
Y8794D02*
D03*
X9250Y45794D02*
D03*
Y45007D02*
D03*
Y41050D02*
D03*
Y40263D02*
D03*
X27400Y28957D02*
D03*
Y29744D02*
D03*
X25200Y28957D02*
D03*
Y29744D02*
D03*
X25933Y28957D02*
D03*
Y29744D02*
D03*
X26667Y28957D02*
D03*
Y29744D02*
D03*
X18000Y27963D02*
D03*
Y28750D02*
D03*
X8400Y30588D02*
D03*
Y29800D02*
D03*
X12600Y35438D02*
D03*
Y34650D02*
D03*
X35200Y30613D02*
D03*
Y31400D02*
D03*
Y33707D02*
D03*
Y34494D02*
D03*
X48799Y45794D02*
D03*
Y45007D02*
D03*
Y41050D02*
D03*
Y40263D02*
D03*
X66949Y28957D02*
D03*
Y29744D02*
D03*
X64749Y28957D02*
D03*
Y29744D02*
D03*
X65482Y28957D02*
D03*
Y29744D02*
D03*
X66216Y28957D02*
D03*
Y29744D02*
D03*
X57549Y27963D02*
D03*
Y28750D02*
D03*
X47949Y30588D02*
D03*
Y29800D02*
D03*
X52149Y35438D02*
D03*
Y34650D02*
D03*
X74749Y30613D02*
D03*
Y31400D02*
D03*
Y33707D02*
D03*
Y34494D02*
D03*
D77*
X7942Y20241D02*
D03*
Y19060D02*
D03*
X47491Y20241D02*
D03*
Y19060D02*
D03*
X7942Y45941D02*
D03*
Y44760D02*
D03*
X47491Y45941D02*
D03*
Y44760D02*
D03*
D78*
X7410Y17600D02*
D03*
X8591D02*
D03*
X11560Y4092D02*
D03*
X12741D02*
D03*
X7787Y7450D02*
D03*
X6606D02*
D03*
X46958Y17600D02*
D03*
X48139D02*
D03*
X51108Y4092D02*
D03*
X52289D02*
D03*
X47336Y7450D02*
D03*
X46155D02*
D03*
X7410Y43300D02*
D03*
X8591D02*
D03*
X11560Y29792D02*
D03*
X12741D02*
D03*
X7787Y33150D02*
D03*
X6606D02*
D03*
X46958Y43300D02*
D03*
X48139D02*
D03*
X51108Y29792D02*
D03*
X52289D02*
D03*
X47336Y33150D02*
D03*
X46155D02*
D03*
D79*
X7950Y15965D02*
D03*
Y14036D02*
D03*
X47499Y15965D02*
D03*
Y14036D02*
D03*
X7950Y41665D02*
D03*
Y39736D02*
D03*
X47499Y41665D02*
D03*
Y39736D02*
D03*
D80*
X6543Y14420D02*
D03*
Y13691D02*
D03*
Y15577D02*
D03*
Y16305D02*
D03*
X29200Y24314D02*
D03*
Y23586D02*
D03*
X26180Y23565D02*
D03*
Y24294D02*
D03*
X27670Y23565D02*
D03*
Y24294D02*
D03*
X13155Y23517D02*
D03*
Y24245D02*
D03*
X11665Y23517D02*
D03*
Y24245D02*
D03*
X46092Y14420D02*
D03*
Y13691D02*
D03*
Y15577D02*
D03*
Y16305D02*
D03*
X68749Y24314D02*
D03*
Y23586D02*
D03*
X65729Y23565D02*
D03*
Y24294D02*
D03*
X67219Y23565D02*
D03*
Y24294D02*
D03*
X52704Y23517D02*
D03*
Y24245D02*
D03*
X51214Y23517D02*
D03*
Y24245D02*
D03*
X6543Y40120D02*
D03*
Y39392D02*
D03*
Y41277D02*
D03*
Y42006D02*
D03*
X29200Y50015D02*
D03*
Y49286D02*
D03*
X26180Y49266D02*
D03*
Y49994D02*
D03*
X27670Y49266D02*
D03*
Y49994D02*
D03*
X13155Y49217D02*
D03*
Y49946D02*
D03*
X11665Y49217D02*
D03*
Y49946D02*
D03*
X46092Y40120D02*
D03*
Y39392D02*
D03*
Y41277D02*
D03*
Y42006D02*
D03*
X68749Y50015D02*
D03*
Y49286D02*
D03*
X65729Y49266D02*
D03*
Y49994D02*
D03*
X67219Y49266D02*
D03*
Y49994D02*
D03*
X52704Y49217D02*
D03*
Y49946D02*
D03*
X51214Y49217D02*
D03*
Y49946D02*
D03*
D81*
X2187Y4950D02*
D03*
Y8850D02*
D03*
X41736Y4950D02*
D03*
Y8850D02*
D03*
X2187Y30650D02*
D03*
Y34550D02*
D03*
X41736Y30650D02*
D03*
Y34550D02*
D03*
D82*
X9914Y10700D02*
D03*
X49462D02*
D03*
X9914Y36400D02*
D03*
X49462D02*
D03*
D83*
X6587Y9700D02*
D03*
Y10700D02*
D03*
Y11700D02*
D03*
X46136Y9700D02*
D03*
Y10700D02*
D03*
Y11700D02*
D03*
X6587Y35400D02*
D03*
Y36400D02*
D03*
Y37400D02*
D03*
X46136Y35400D02*
D03*
Y36400D02*
D03*
Y37400D02*
D03*
D84*
X7010Y3886D02*
D03*
Y5106D02*
D03*
X46559Y3886D02*
D03*
Y5106D02*
D03*
X7010Y29586D02*
D03*
Y30807D02*
D03*
X46559Y29586D02*
D03*
Y30807D02*
D03*
D85*
X19045Y6942D02*
D03*
Y6344D02*
D03*
X36814Y12425D02*
D03*
Y11827D02*
D03*
X36800Y15599D02*
D03*
Y15000D02*
D03*
X26200Y21999D02*
D03*
Y21401D02*
D03*
X27700Y21999D02*
D03*
Y21401D02*
D03*
X29250Y22049D02*
D03*
Y21451D02*
D03*
X13165Y21951D02*
D03*
Y21353D02*
D03*
X11665Y21951D02*
D03*
Y21353D02*
D03*
X58593Y6942D02*
D03*
Y6344D02*
D03*
X76363Y12425D02*
D03*
Y11827D02*
D03*
X76349Y15599D02*
D03*
Y15000D02*
D03*
X65749Y21999D02*
D03*
Y21401D02*
D03*
X67249Y21999D02*
D03*
Y21401D02*
D03*
X68799Y22049D02*
D03*
Y21451D02*
D03*
X52714Y21951D02*
D03*
Y21353D02*
D03*
X51214Y21951D02*
D03*
Y21353D02*
D03*
X19045Y32642D02*
D03*
Y32044D02*
D03*
X36814Y38126D02*
D03*
Y37527D02*
D03*
X36800Y41299D02*
D03*
Y40700D02*
D03*
X26200Y47700D02*
D03*
Y47101D02*
D03*
X27700Y47700D02*
D03*
Y47101D02*
D03*
X29250Y47750D02*
D03*
Y47151D02*
D03*
X13165Y47651D02*
D03*
Y47053D02*
D03*
X11665Y47651D02*
D03*
Y47053D02*
D03*
X58593Y32642D02*
D03*
Y32044D02*
D03*
X76363Y38126D02*
D03*
Y37527D02*
D03*
X76349Y41299D02*
D03*
Y40700D02*
D03*
X65749Y47700D02*
D03*
Y47101D02*
D03*
X67249Y47700D02*
D03*
Y47101D02*
D03*
X68799Y47750D02*
D03*
Y47151D02*
D03*
X52714Y47651D02*
D03*
Y47053D02*
D03*
X51214Y47651D02*
D03*
Y47053D02*
D03*
D86*
X14715Y4430D02*
D03*
X15443D02*
D03*
X54263D02*
D03*
X54992D02*
D03*
X14715Y30130D02*
D03*
X15443D02*
D03*
X54263D02*
D03*
X54992D02*
D03*
D87*
X12680Y11100D02*
D03*
X15416D02*
D03*
X4668Y15650D02*
D03*
X1932D02*
D03*
X52228Y11100D02*
D03*
X54965D02*
D03*
X44217Y15650D02*
D03*
X41481D02*
D03*
X12680Y36800D02*
D03*
X15416D02*
D03*
X4668Y41350D02*
D03*
X1932D02*
D03*
X52228Y36800D02*
D03*
X54965D02*
D03*
X44217Y41350D02*
D03*
X41481D02*
D03*
D88*
X15015Y6250D02*
D03*
X13086D02*
D03*
X54563D02*
D03*
X52634D02*
D03*
X15015Y31950D02*
D03*
X13086D02*
D03*
X54563D02*
D03*
X52634D02*
D03*
D89*
X13600Y7676D02*
D03*
X14100D02*
D03*
X14600D02*
D03*
X15100D02*
D03*
X13600Y9625D02*
D03*
X14100D02*
D03*
X14600D02*
D03*
X15100D02*
D03*
X53149Y7676D02*
D03*
X53649D02*
D03*
X54149D02*
D03*
X54649D02*
D03*
X53149Y9625D02*
D03*
X53649D02*
D03*
X54149D02*
D03*
X54649D02*
D03*
X13600Y33376D02*
D03*
X14100D02*
D03*
X14600D02*
D03*
X15100D02*
D03*
X13600Y35325D02*
D03*
X14100D02*
D03*
X14600D02*
D03*
X15100D02*
D03*
X53149Y33376D02*
D03*
X53649D02*
D03*
X54149D02*
D03*
X54649D02*
D03*
X53149Y35325D02*
D03*
X53649D02*
D03*
X54149D02*
D03*
X54649D02*
D03*
D90*
X2179Y19361D02*
D03*
X41727D02*
D03*
X2179Y45061D02*
D03*
X41727D02*
D03*
D91*
X5978Y20699D02*
D03*
Y20030D02*
D03*
Y19361D02*
D03*
Y18691D02*
D03*
Y18022D02*
D03*
X45527Y20699D02*
D03*
Y20030D02*
D03*
Y19361D02*
D03*
Y18691D02*
D03*
Y18022D02*
D03*
X5978Y46400D02*
D03*
Y45730D02*
D03*
Y45061D02*
D03*
Y44392D02*
D03*
Y43723D02*
D03*
X45527Y46400D02*
D03*
Y45730D02*
D03*
Y45061D02*
D03*
Y44392D02*
D03*
Y43723D02*
D03*
D92*
X36432Y4923D02*
D03*
Y6577D02*
D03*
X75981Y4923D02*
D03*
Y6577D02*
D03*
X36432Y30624D02*
D03*
Y32277D02*
D03*
X75981Y30624D02*
D03*
Y32277D02*
D03*
D93*
X33748Y18618D02*
D03*
X34347D02*
D03*
X34349Y19650D02*
D03*
X33751D02*
D03*
X33744Y21731D02*
D03*
X34342D02*
D03*
X33746Y20676D02*
D03*
X34344D02*
D03*
X73297Y18618D02*
D03*
X73895D02*
D03*
X73898Y19650D02*
D03*
X73300D02*
D03*
X73292Y21731D02*
D03*
X73891D02*
D03*
X73295Y20676D02*
D03*
X73893D02*
D03*
X33748Y44318D02*
D03*
X34347D02*
D03*
X34349Y45350D02*
D03*
X33751D02*
D03*
X33744Y47431D02*
D03*
X34342D02*
D03*
X33746Y46376D02*
D03*
X34344D02*
D03*
X73297Y44318D02*
D03*
X73895D02*
D03*
X73898Y45350D02*
D03*
X73300D02*
D03*
X73292Y47431D02*
D03*
X73891D02*
D03*
X73295Y46376D02*
D03*
X73893D02*
D03*
D94*
X79850Y900D02*
D03*
X79900Y50350D02*
D03*
X-1050Y50400D02*
D03*
Y900D02*
D03*
D95*
X2477Y24193D02*
D03*
X2691Y23728D02*
D03*
X2591Y23227D02*
D03*
X2215Y22880D02*
D03*
X1707Y22820D02*
D03*
X1260Y23070D02*
D03*
X1047Y23535D02*
D03*
X1147Y24037D02*
D03*
X1523Y24384D02*
D03*
X2031Y24443D02*
D03*
X37916Y24246D02*
D03*
X38130Y23782D02*
D03*
X38030Y23280D02*
D03*
X37654Y22933D02*
D03*
X37146Y22873D02*
D03*
X36700Y23124D02*
D03*
X36486Y23588D02*
D03*
X36586Y24090D02*
D03*
X36962Y24437D02*
D03*
X37470Y24497D02*
D03*
X37910Y2530D02*
D03*
X38124Y2065D02*
D03*
X38024Y1564D02*
D03*
X37648Y1217D02*
D03*
X37140Y1157D02*
D03*
X36693Y1407D02*
D03*
X36480Y1872D02*
D03*
X36580Y2374D02*
D03*
X36956Y2721D02*
D03*
X37464Y2780D02*
D03*
X2677Y2480D02*
D03*
X2891Y2015D02*
D03*
X2791Y1514D02*
D03*
X2415Y1167D02*
D03*
X1907Y1107D02*
D03*
X1460Y1357D02*
D03*
X1247Y1822D02*
D03*
X1347Y2324D02*
D03*
X1723Y2671D02*
D03*
X2231Y2730D02*
D03*
X42026Y24193D02*
D03*
X42240Y23728D02*
D03*
X42139Y23227D02*
D03*
X41763Y22880D02*
D03*
X41255Y22820D02*
D03*
X40809Y23070D02*
D03*
X40595Y23535D02*
D03*
X40696Y24037D02*
D03*
X41071Y24384D02*
D03*
X41580Y24443D02*
D03*
X77465Y24246D02*
D03*
X77679Y23782D02*
D03*
X77579Y23280D02*
D03*
X77203Y22933D02*
D03*
X76695Y22873D02*
D03*
X76248Y23124D02*
D03*
X76035Y23588D02*
D03*
X76135Y24090D02*
D03*
X76511Y24437D02*
D03*
X77019Y24497D02*
D03*
X77459Y2530D02*
D03*
X77673Y2065D02*
D03*
X77572Y1564D02*
D03*
X77196Y1217D02*
D03*
X76688Y1157D02*
D03*
X76242Y1407D02*
D03*
X76028Y1872D02*
D03*
X76129Y2374D02*
D03*
X76505Y2721D02*
D03*
X77013Y2780D02*
D03*
X42226Y2480D02*
D03*
X42440Y2015D02*
D03*
X42339Y1514D02*
D03*
X41963Y1167D02*
D03*
X41455Y1107D02*
D03*
X41009Y1357D02*
D03*
X40795Y1822D02*
D03*
X40896Y2324D02*
D03*
X41271Y2671D02*
D03*
X41780Y2730D02*
D03*
X2477Y49893D02*
D03*
X2691Y49429D02*
D03*
X2591Y48927D02*
D03*
X2215Y48580D02*
D03*
X1707Y48520D02*
D03*
X1260Y48771D02*
D03*
X1047Y49235D02*
D03*
X1147Y49737D02*
D03*
X1523Y50084D02*
D03*
X2031Y50144D02*
D03*
X37916Y49947D02*
D03*
X38130Y49482D02*
D03*
X38030Y48980D02*
D03*
X37654Y48633D02*
D03*
X37146Y48574D02*
D03*
X36700Y48824D02*
D03*
X36486Y49289D02*
D03*
X36586Y49790D02*
D03*
X36962Y50137D02*
D03*
X37470Y50197D02*
D03*
X37910Y28230D02*
D03*
X38124Y27766D02*
D03*
X38024Y27264D02*
D03*
X37648Y26917D02*
D03*
X37140Y26857D02*
D03*
X36693Y27108D02*
D03*
X36480Y27572D02*
D03*
X36580Y28074D02*
D03*
X36956Y28421D02*
D03*
X37464Y28481D02*
D03*
X2677Y28180D02*
D03*
X2891Y27716D02*
D03*
X2791Y27214D02*
D03*
X2415Y26867D02*
D03*
X1907Y26807D02*
D03*
X1460Y27058D02*
D03*
X1247Y27522D02*
D03*
X1347Y28024D02*
D03*
X1723Y28371D02*
D03*
X2231Y28431D02*
D03*
X42026Y49893D02*
D03*
X42240Y49429D02*
D03*
X42139Y48927D02*
D03*
X41763Y48580D02*
D03*
X41255Y48520D02*
D03*
X40809Y48771D02*
D03*
X40595Y49235D02*
D03*
X40696Y49737D02*
D03*
X41071Y50084D02*
D03*
X41580Y50144D02*
D03*
X77465Y49947D02*
D03*
X77679Y49482D02*
D03*
X77579Y48980D02*
D03*
X77203Y48633D02*
D03*
X76695Y48574D02*
D03*
X76248Y48824D02*
D03*
X76035Y49289D02*
D03*
X76135Y49790D02*
D03*
X76511Y50137D02*
D03*
X77019Y50197D02*
D03*
X77459Y28230D02*
D03*
X77673Y27766D02*
D03*
X77572Y27264D02*
D03*
X77196Y26917D02*
D03*
X76688Y26857D02*
D03*
X76242Y27108D02*
D03*
X76028Y27572D02*
D03*
X76129Y28074D02*
D03*
X76505Y28421D02*
D03*
X77013Y28481D02*
D03*
X42226Y28180D02*
D03*
X42440Y27716D02*
D03*
X42339Y27214D02*
D03*
X41963Y26867D02*
D03*
X41455Y26807D02*
D03*
X41009Y27058D02*
D03*
X40795Y27522D02*
D03*
X40896Y28024D02*
D03*
X41271Y28371D02*
D03*
X41780Y28431D02*
D03*
D96*
X1869Y23632D02*
D03*
X37308Y23685D02*
D03*
X37302Y1969D02*
D03*
X2069Y1919D02*
D03*
X41417Y23632D02*
D03*
X76857Y23685D02*
D03*
X76851Y1969D02*
D03*
X41617Y1919D02*
D03*
X1869Y49332D02*
D03*
X37308Y49385D02*
D03*
X37302Y27669D02*
D03*
X2069Y27619D02*
D03*
X41417Y49332D02*
D03*
X76857Y49385D02*
D03*
X76851Y27669D02*
D03*
X41617Y27619D02*
D03*
D97*
X32518Y8800D02*
D03*
X31518D02*
D03*
X32518Y9800D02*
D03*
X31518D02*
D03*
X32518Y10800D02*
D03*
X31518D02*
D03*
X32518Y11800D02*
D03*
X31518D02*
D03*
X32518Y12800D02*
D03*
X31518D02*
D03*
X32518Y13800D02*
D03*
X31518D02*
D03*
X32518Y14800D02*
D03*
X31518D02*
D03*
X32518Y15800D02*
D03*
X31518D02*
D03*
X32518Y16800D02*
D03*
X31518D02*
D03*
X32518Y17800D02*
D03*
X31518D02*
D03*
X32518Y18800D02*
D03*
X21400Y6800D02*
D03*
Y7800D02*
D03*
X22400Y6800D02*
D03*
Y7800D02*
D03*
X23400Y6800D02*
D03*
Y7800D02*
D03*
X24400Y6800D02*
D03*
Y7800D02*
D03*
X25400Y6800D02*
D03*
Y7800D02*
D03*
X28400Y6800D02*
D03*
Y7800D02*
D03*
X29400Y6800D02*
D03*
Y7800D02*
D03*
X30400Y6800D02*
D03*
X20203Y8800D02*
D03*
X19203D02*
D03*
X20203Y9800D02*
D03*
X19203D02*
D03*
X20203Y10800D02*
D03*
X19203D02*
D03*
X20203Y11800D02*
D03*
X19203D02*
D03*
X20203Y12800D02*
D03*
X19203D02*
D03*
X20203Y13800D02*
D03*
X19203D02*
D03*
X20203Y14800D02*
D03*
X19203D02*
D03*
X20203Y15800D02*
D03*
X19203D02*
D03*
X20203Y16800D02*
D03*
X19203D02*
D03*
X20203Y17800D02*
D03*
X19203D02*
D03*
X20203Y18800D02*
D03*
X19403Y3749D02*
D03*
X20403D02*
D03*
X24856Y1903D02*
D03*
X25856Y903D02*
D03*
Y1903D02*
D03*
X26856Y903D02*
D03*
Y1903D02*
D03*
X27856Y903D02*
D03*
Y1903D02*
D03*
X16650Y7650D02*
D03*
X17650Y8650D02*
D03*
X16650D02*
D03*
X17650Y9650D02*
D03*
X16650D02*
D03*
X17650Y10650D02*
D03*
X16650D02*
D03*
X17650Y11650D02*
D03*
X16650D02*
D03*
X17650Y12650D02*
D03*
X16650D02*
D03*
X17650Y19950D02*
D03*
X16650Y18950D02*
D03*
X17650D02*
D03*
X16650Y17950D02*
D03*
X17650D02*
D03*
X16650Y16950D02*
D03*
X17650D02*
D03*
X16650Y15950D02*
D03*
X17650D02*
D03*
X16650Y14950D02*
D03*
X17650D02*
D03*
X19408Y884D02*
D03*
X20408D02*
D03*
X21408D02*
D03*
X22408D02*
D03*
X29832Y909D02*
D03*
X30832D02*
D03*
X31832D02*
D03*
X32832D02*
D03*
X33832D02*
D03*
X32950Y24550D02*
D03*
X33950D02*
D03*
X34950D02*
D03*
X21985Y23295D02*
D03*
Y24295D02*
D03*
X22985Y23295D02*
D03*
Y24295D02*
D03*
X23985Y23295D02*
D03*
X8450Y24536D02*
D03*
X7450D02*
D03*
X72067Y8800D02*
D03*
X71067D02*
D03*
X72067Y9800D02*
D03*
X71067D02*
D03*
X72067Y10800D02*
D03*
X71067D02*
D03*
X72067Y11800D02*
D03*
X71067D02*
D03*
X72067Y12800D02*
D03*
X71067D02*
D03*
X72067Y13800D02*
D03*
X71067D02*
D03*
X72067Y14800D02*
D03*
X71067D02*
D03*
X72067Y15800D02*
D03*
X71067D02*
D03*
X72067Y16800D02*
D03*
X71067D02*
D03*
X72067Y17800D02*
D03*
X71067D02*
D03*
X72067Y18800D02*
D03*
X60949Y6800D02*
D03*
Y7800D02*
D03*
X61949Y6800D02*
D03*
Y7800D02*
D03*
X62949Y6800D02*
D03*
Y7800D02*
D03*
X63949Y6800D02*
D03*
Y7800D02*
D03*
X64949Y6800D02*
D03*
Y7800D02*
D03*
X67949Y6800D02*
D03*
Y7800D02*
D03*
X68949Y6800D02*
D03*
Y7800D02*
D03*
X69949Y6800D02*
D03*
X59752Y8800D02*
D03*
X58752D02*
D03*
X59752Y9800D02*
D03*
X58752D02*
D03*
X59752Y10800D02*
D03*
X58752D02*
D03*
X59752Y11800D02*
D03*
X58752D02*
D03*
X59752Y12800D02*
D03*
X58752D02*
D03*
X59752Y13800D02*
D03*
X58752D02*
D03*
X59752Y14800D02*
D03*
X58752D02*
D03*
X59752Y15800D02*
D03*
X58752D02*
D03*
X59752Y16800D02*
D03*
X58752D02*
D03*
X59752Y17800D02*
D03*
X58752D02*
D03*
X59752Y18800D02*
D03*
X58952Y3749D02*
D03*
X59952D02*
D03*
X64405Y1903D02*
D03*
X65405Y903D02*
D03*
Y1903D02*
D03*
X66405Y903D02*
D03*
Y1903D02*
D03*
X67405Y903D02*
D03*
Y1903D02*
D03*
X56199Y7650D02*
D03*
X57199Y8650D02*
D03*
X56199D02*
D03*
X57199Y9650D02*
D03*
X56199D02*
D03*
X57199Y10650D02*
D03*
X56199D02*
D03*
X57199Y11650D02*
D03*
X56199D02*
D03*
X57199Y12650D02*
D03*
X56199D02*
D03*
X57199Y19950D02*
D03*
X56199Y18950D02*
D03*
X57199D02*
D03*
X56199Y17950D02*
D03*
X57199D02*
D03*
X56199Y16950D02*
D03*
X57199D02*
D03*
X56199Y15950D02*
D03*
X57199D02*
D03*
X56199Y14950D02*
D03*
X57199D02*
D03*
X58956Y884D02*
D03*
X59956D02*
D03*
X60956D02*
D03*
X61956D02*
D03*
X69381Y909D02*
D03*
X70381D02*
D03*
X71381D02*
D03*
X72381D02*
D03*
X73381D02*
D03*
X72499Y24550D02*
D03*
X73499D02*
D03*
X74499D02*
D03*
X61534Y23295D02*
D03*
Y24295D02*
D03*
X62534Y23295D02*
D03*
Y24295D02*
D03*
X63534Y23295D02*
D03*
X47999Y24536D02*
D03*
X46999D02*
D03*
X32518Y34500D02*
D03*
X31518D02*
D03*
X32518Y35500D02*
D03*
X31518D02*
D03*
X32518Y36500D02*
D03*
X31518D02*
D03*
X32518Y37500D02*
D03*
X31518D02*
D03*
X32518Y38500D02*
D03*
X31518D02*
D03*
X32518Y39500D02*
D03*
X31518D02*
D03*
X32518Y40500D02*
D03*
X31518D02*
D03*
X32518Y41500D02*
D03*
X31518D02*
D03*
X32518Y42500D02*
D03*
X31518D02*
D03*
X32518Y43500D02*
D03*
X31518D02*
D03*
X32518Y44500D02*
D03*
X21400Y32500D02*
D03*
Y33500D02*
D03*
X22400Y32500D02*
D03*
Y33500D02*
D03*
X23400Y32500D02*
D03*
Y33500D02*
D03*
X24400Y32500D02*
D03*
Y33500D02*
D03*
X25400Y32500D02*
D03*
Y33500D02*
D03*
X28400Y32500D02*
D03*
Y33500D02*
D03*
X29400Y32500D02*
D03*
Y33500D02*
D03*
X30400Y32500D02*
D03*
X20203Y34500D02*
D03*
X19203D02*
D03*
X20203Y35500D02*
D03*
X19203D02*
D03*
X20203Y36500D02*
D03*
X19203D02*
D03*
X20203Y37500D02*
D03*
X19203D02*
D03*
X20203Y38500D02*
D03*
X19203D02*
D03*
X20203Y39500D02*
D03*
X19203D02*
D03*
X20203Y40500D02*
D03*
X19203D02*
D03*
X20203Y41500D02*
D03*
X19203D02*
D03*
X20203Y42500D02*
D03*
X19203D02*
D03*
X20203Y43500D02*
D03*
X19203D02*
D03*
X20203Y44500D02*
D03*
X19403Y29449D02*
D03*
X20403D02*
D03*
X24856Y27603D02*
D03*
X25856Y26603D02*
D03*
Y27603D02*
D03*
X26856Y26603D02*
D03*
Y27603D02*
D03*
X27856Y26603D02*
D03*
Y27603D02*
D03*
X16650Y33350D02*
D03*
X17650Y34350D02*
D03*
X16650D02*
D03*
X17650Y35350D02*
D03*
X16650D02*
D03*
X17650Y36350D02*
D03*
X16650D02*
D03*
X17650Y37350D02*
D03*
X16650D02*
D03*
X17650Y38350D02*
D03*
X16650D02*
D03*
X17650Y45650D02*
D03*
X16650Y44650D02*
D03*
X17650D02*
D03*
X16650Y43650D02*
D03*
X17650D02*
D03*
X16650Y42650D02*
D03*
X17650D02*
D03*
X16650Y41650D02*
D03*
X17650D02*
D03*
X16650Y40650D02*
D03*
X17650D02*
D03*
X19408Y26584D02*
D03*
X20408D02*
D03*
X21408D02*
D03*
X22408D02*
D03*
X29832Y26609D02*
D03*
X30832D02*
D03*
X31832D02*
D03*
X32832D02*
D03*
X33832D02*
D03*
X32950Y50250D02*
D03*
X33950D02*
D03*
X34950D02*
D03*
X21985Y48995D02*
D03*
Y49995D02*
D03*
X22985Y48995D02*
D03*
Y49995D02*
D03*
X23985Y48995D02*
D03*
X8450Y50236D02*
D03*
X7450D02*
D03*
X72067Y34500D02*
D03*
X71067D02*
D03*
X72067Y35500D02*
D03*
X71067D02*
D03*
X72067Y36500D02*
D03*
X71067D02*
D03*
X72067Y37500D02*
D03*
X71067D02*
D03*
X72067Y38500D02*
D03*
X71067D02*
D03*
X72067Y39500D02*
D03*
X71067D02*
D03*
X72067Y40500D02*
D03*
X71067D02*
D03*
X72067Y41500D02*
D03*
X71067D02*
D03*
X72067Y42500D02*
D03*
X71067D02*
D03*
X72067Y43500D02*
D03*
X71067D02*
D03*
X72067Y44500D02*
D03*
X60949Y32500D02*
D03*
Y33500D02*
D03*
X61949Y32500D02*
D03*
Y33500D02*
D03*
X62949Y32500D02*
D03*
Y33500D02*
D03*
X63949Y32500D02*
D03*
Y33500D02*
D03*
X64949Y32500D02*
D03*
Y33500D02*
D03*
X67949Y32500D02*
D03*
Y33500D02*
D03*
X68949Y32500D02*
D03*
Y33500D02*
D03*
X69949Y32500D02*
D03*
X59752Y34500D02*
D03*
X58752D02*
D03*
X59752Y35500D02*
D03*
X58752D02*
D03*
X59752Y36500D02*
D03*
X58752D02*
D03*
X59752Y37500D02*
D03*
X58752D02*
D03*
X59752Y38500D02*
D03*
X58752D02*
D03*
X59752Y39500D02*
D03*
X58752D02*
D03*
X59752Y40500D02*
D03*
X58752D02*
D03*
X59752Y41500D02*
D03*
X58752D02*
D03*
X59752Y42500D02*
D03*
X58752D02*
D03*
X59752Y43500D02*
D03*
X58752D02*
D03*
X59752Y44500D02*
D03*
X58952Y29449D02*
D03*
X59952D02*
D03*
X64405Y27603D02*
D03*
X65405Y26603D02*
D03*
Y27603D02*
D03*
X66405Y26603D02*
D03*
Y27603D02*
D03*
X67405Y26603D02*
D03*
Y27603D02*
D03*
X56199Y33350D02*
D03*
X57199Y34350D02*
D03*
X56199D02*
D03*
X57199Y35350D02*
D03*
X56199D02*
D03*
X57199Y36350D02*
D03*
X56199D02*
D03*
X57199Y37350D02*
D03*
X56199D02*
D03*
X57199Y38350D02*
D03*
X56199D02*
D03*
X57199Y45650D02*
D03*
X56199Y44650D02*
D03*
X57199D02*
D03*
X56199Y43650D02*
D03*
X57199D02*
D03*
X56199Y42650D02*
D03*
X57199D02*
D03*
X56199Y41650D02*
D03*
X57199D02*
D03*
X56199Y40650D02*
D03*
X57199D02*
D03*
X58956Y26584D02*
D03*
X59956D02*
D03*
X60956D02*
D03*
X61956D02*
D03*
X69381Y26609D02*
D03*
X70381D02*
D03*
X71381D02*
D03*
X72381D02*
D03*
X73381D02*
D03*
X72499Y50250D02*
D03*
X73499D02*
D03*
X74499D02*
D03*
X61534Y48995D02*
D03*
Y49995D02*
D03*
X62534Y48995D02*
D03*
Y49995D02*
D03*
X63534Y48995D02*
D03*
X47999Y50236D02*
D03*
X46999D02*
D03*
D98*
X31518Y18800D02*
D03*
X19203D02*
D03*
X17650Y7650D02*
D03*
X16650Y19950D02*
D03*
X71067Y18800D02*
D03*
X58752D02*
D03*
X57199Y7650D02*
D03*
X56199Y19950D02*
D03*
X31518Y44500D02*
D03*
X19203D02*
D03*
X17650Y33350D02*
D03*
X16650Y45650D02*
D03*
X71067Y44500D02*
D03*
X58752D02*
D03*
X57199Y33350D02*
D03*
X56199Y45650D02*
D03*
D99*
X26400Y6800D02*
D03*
Y7800D02*
D03*
X27400Y6800D02*
D03*
Y7800D02*
D03*
X65949Y6800D02*
D03*
Y7800D02*
D03*
X66949Y6800D02*
D03*
Y7800D02*
D03*
X26400Y32500D02*
D03*
Y33500D02*
D03*
X27400Y32500D02*
D03*
Y33500D02*
D03*
X65949Y32500D02*
D03*
Y33500D02*
D03*
X66949Y32500D02*
D03*
Y33500D02*
D03*
D100*
X30400Y7800D02*
D03*
X21403Y3749D02*
D03*
X24856Y903D02*
D03*
X23408Y884D02*
D03*
X34832Y909D02*
D03*
X31950Y24550D02*
D03*
X23985Y24295D02*
D03*
X6450Y24536D02*
D03*
X69949Y7800D02*
D03*
X60952Y3749D02*
D03*
X64405Y903D02*
D03*
X62956Y884D02*
D03*
X74381Y909D02*
D03*
X71499Y24550D02*
D03*
X63534Y24295D02*
D03*
X45999Y24536D02*
D03*
X30400Y33500D02*
D03*
X21403Y29449D02*
D03*
X24856Y26603D02*
D03*
X23408Y26584D02*
D03*
X34832Y26609D02*
D03*
X31950Y50250D02*
D03*
X23985Y49995D02*
D03*
X6450Y50236D02*
D03*
X69949Y33500D02*
D03*
X60952Y29449D02*
D03*
X64405Y26603D02*
D03*
X62956Y26584D02*
D03*
X74381Y26609D02*
D03*
X71499Y50250D02*
D03*
X63534Y49995D02*
D03*
X45999Y50236D02*
D03*
D101*
X1426Y12700D02*
D03*
X3126D02*
D03*
X4826D02*
D03*
X16235Y23745D02*
D03*
X17935D02*
D03*
X19635D02*
D03*
X40974Y12700D02*
D03*
X42674D02*
D03*
X44374D02*
D03*
X55784Y23745D02*
D03*
X57484D02*
D03*
X59184D02*
D03*
X1426Y38400D02*
D03*
X3126D02*
D03*
X4826D02*
D03*
X16235Y49445D02*
D03*
X17935D02*
D03*
X19635D02*
D03*
X40974Y38400D02*
D03*
X42674D02*
D03*
X44374D02*
D03*
X55784Y49445D02*
D03*
X57484D02*
D03*
X59184D02*
D03*
D102*
X7043Y2800D02*
D03*
X8043D02*
D03*
X10043D02*
D03*
X12043D02*
D03*
X35251Y18650D02*
D03*
Y19650D02*
D03*
X38400Y21650D02*
D03*
X35251Y20650D02*
D03*
Y21650D02*
D03*
X38400Y20650D02*
D03*
Y19650D02*
D03*
Y18650D02*
D03*
X46592Y2800D02*
D03*
X47592D02*
D03*
X49592D02*
D03*
X51592D02*
D03*
X74799Y18650D02*
D03*
Y19650D02*
D03*
X77949Y21650D02*
D03*
X74799Y20650D02*
D03*
Y21650D02*
D03*
X77949Y20650D02*
D03*
Y19650D02*
D03*
Y18650D02*
D03*
X7043Y28500D02*
D03*
X8043D02*
D03*
X10043D02*
D03*
X12043D02*
D03*
X35251Y44350D02*
D03*
Y45350D02*
D03*
X38400Y47350D02*
D03*
X35251Y46350D02*
D03*
Y47350D02*
D03*
X38400Y46350D02*
D03*
Y45350D02*
D03*
Y44350D02*
D03*
X46592Y28500D02*
D03*
X47592D02*
D03*
X49592D02*
D03*
X51592D02*
D03*
X74799Y44350D02*
D03*
Y45350D02*
D03*
X77949Y47350D02*
D03*
X74799Y46350D02*
D03*
Y47350D02*
D03*
X77949Y46350D02*
D03*
Y45350D02*
D03*
Y44350D02*
D03*
D103*
X36500Y8900D02*
D03*
Y7900D02*
D03*
X76049Y8900D02*
D03*
Y7900D02*
D03*
X36500Y34600D02*
D03*
Y33600D02*
D03*
X76049Y34600D02*
D03*
Y33600D02*
D03*
D104*
X36500Y8400D02*
D03*
X76049D02*
D03*
X36500Y34100D02*
D03*
X76049D02*
D03*
D105*
X38150Y5350D02*
D03*
Y8350D02*
D03*
X77699Y5350D02*
D03*
Y8350D02*
D03*
X38150Y31050D02*
D03*
Y34050D02*
D03*
X77699Y31050D02*
D03*
Y34050D02*
D03*
D106*
X38150Y11900D02*
D03*
Y12400D02*
D03*
Y15100D02*
D03*
Y15600D02*
D03*
X77699Y11900D02*
D03*
Y12400D02*
D03*
Y15100D02*
D03*
Y15600D02*
D03*
X38150Y37600D02*
D03*
Y38100D02*
D03*
Y40800D02*
D03*
Y41300D02*
D03*
X77699Y37600D02*
D03*
Y38100D02*
D03*
Y40800D02*
D03*
Y41300D02*
D03*
D107*
X26680Y4502D02*
D03*
X66229D02*
D03*
X26680Y30202D02*
D03*
X66229D02*
D03*
M02*
