M48
;Layer_Color=9474304
;FILE_FORMAT=2:4
INCH,LZ
;TYPE=PLATED
T1F00S00C0.0120
T2F00S00C0.0197
T3F00S00C0.0220
T4F00S00C0.0300
T5F00S00C0.0320
T6F00S00C0.0354
T7F00S00C0.0900
T8F00S00C0.1181
T9F00S00C0.1200
%
T01
X068949Y00125
X069699Y00275
X071199
X071949Y00425
X070449
X068949
X069439Y006604
X069693Y009306
X074299Y008
X074749Y0062
X074249Y0057
X071949Y00125
X067249Y00325
X065839Y003251
X065499Y0045
X066229Y004502
X06695Y004489
X064749Y0045
X061449Y00275
X059949
X058099Y00295
Y0033
X057799Y00365
X057349
X057199Y0017
Y0013
X057749
Y0017
X058358Y00594
X058837Y005931
X062283Y009291
X062755Y009293
X06305Y009604
X061753Y010028
X067222Y00979
X054149Y009
Y0086
Y00825
X053649Y0086
X053199
X053249Y00425
X052849
Y00375
X053249
X053921Y002927
X049649Y0046
Y00495
X049299
Y0046
X048161Y005302
X047792
X045699Y00575
X044199
X044949Y00725
X043449
X041949
X040449
X044199Y00875
X044949Y00425
X045699Y00275
X044199
X042699
X043449Y00125
X044949
X046449
X040449
X051118Y007307
X051124Y007633
X051455
X051456Y007296
X051599Y0099
X03475Y008
X0352Y0062
X0347Y0057
X0324Y00425
X0309
X0294
X027401Y004489
X02668Y004502
X02595Y0045
X0252
X02629Y003251
X0277Y00325
X03015Y00275
X03165
X0324Y00125
X0294
X02989Y006604
X030144Y009306
X027673Y00979
X023501Y009604
X023206Y009293
X022734Y009291
X022204Y010028
X0219Y00275
X0204
X01855Y00295
Y0033
X01825Y00365
X0178
X01765Y0017
Y0013
X0182
Y0017
X01881Y00594
X019288Y005931
X0146Y00825
Y0086
Y009
X0141Y0086
X01365
X011906Y007633
X011575
X011569Y007307
X011907Y007296
X01205Y0099
X0133Y00425
X0137
Y00375
X0133
X014372Y002927
X0101Y0046
Y00495
X00975
Y0046
X008612Y005302
X008244
X00615Y00575
Y00275
X0069Y00125
X0054
X0039
X00465Y00275
X00315
X0054Y00425
X00465Y00575
X0054Y00725
X0039
X0024
X0009
X00465Y00875
X0009Y00125
Y01025
X00165Y01175
X00465
X0054Y010724
Y010374
X00585
Y010724
X0039Y01325
X00315Y01475
X00165
X0012Y0154
Y01585
X0007
Y0154
X000754Y01755
Y01815
Y01875
Y01935
Y01995
Y02055
Y02115
X001684Y021139
Y020539
Y019939
Y019339
Y018739
Y018139
Y017539
X002614Y017543
Y018143
Y018743
Y019343
Y019943
Y020543
Y021143
X003545Y02116
Y02056
Y01996
Y01936
Y01876
Y01816
Y01756
X0039Y02225
X0054
X00465Y02375
X00615
X0069Y02225
X00845Y0226
X00915Y02375
X01065
X011668Y024919
X013177Y024924
Y020952
X0129Y01925
X0144
X01515Y01775
X01365
X01215
X0129Y01625
X0144
X01515Y01475
X01365
X01215
X0129Y01325
X0135Y01265
Y0123
X01385
Y01265
X0144Y01325
X0114
X01205Y0111
Y0107
Y0103
X01245
X0128
X0069Y01025
X00765Y01175
Y01475
X008743Y01584
X008745Y016269
X009166
X009603
X009598Y015846
X009182Y015839
X0093Y0175
Y018025
Y01855
X00985
Y018025
Y0175
X0114Y01625
Y01925
X017139Y019408
X017139Y018453
X017138Y017423
X017189Y014093
X017217Y013541
X021542Y010957
X0204Y02075
X0219
X0234
X023525Y01895
X02433Y018618
X023507Y017186
X023423Y016233
X02354Y015211
X024349Y015095
X023533Y01336
X023294Y01077
X024347Y011272
X0216Y011263
X02768Y011274
X027683Y013585
X02769Y015089
X027014Y016417
X027692Y01733
X027688Y018877
X027696Y021
X02619
X02925
X03165Y02075
X033296Y020668
X03335Y01965
X033347Y018618
X0324Y01925
X0309
X033249Y021703
X0339Y02225
X0354
X03465Y01775
X0354Y01625
X0339
X03465Y01475
X0364Y015
Y0156
X036337Y012452
Y011852
X03465Y01175
X0354Y01325
X0339
X0354Y01025
X028694Y016284
X022723Y019328
X02619Y024967
X027696Y024947
X029246
X040302Y02115
Y02055
Y01995
Y01935
Y01875
Y01815
Y01755
X041233Y017539
Y018139
Y018739
Y019339
Y019939
Y020539
Y021139
X042163Y021143
Y020543
Y019943
Y019343
Y018743
Y018143
Y017543
X043094Y01756
Y01816
Y01876
Y01936
Y01996
Y02056
Y02116
X043449Y02225
X044949
X046449
X047999Y0226
X048699Y02375
X050199
X051217Y024919
X052726Y024924
Y020952
X052449Y01925
X050949
X049399Y01855
Y018025
Y0175
X048849
Y018025
Y01855
X048715Y016269
X048294
X048292Y01584
X048731Y015839
X049147Y015846
X049152Y016269
X050949Y01625
X052449
X051699Y01775
Y01475
X052449Y01325
X050949
X051599Y0111
Y0107
Y0103
X051999
X052349
X046449Y01025
X045399Y010374
Y010724
X044949
Y010374
X044199Y01175
X043449Y01325
X042699Y01475
X041199
X040749Y0154
Y01585
X040249
Y0154
X041199Y01175
X040449Y01025
X047199Y01175
Y01475
X045699Y02375
X044199
X053949Y01925
X054699Y01775
X053199
X053949Y01625
X054699Y01475
X053199
X053049Y01265
Y0123
X053399
Y01265
X053949Y01325
X056766Y013541
X056737Y014093
X056686Y017423
X056687Y018453
X056687Y019408
X059949Y02075
X061449
X062949
X063074Y01895
X063878Y018618
X063056Y017186
X062972Y016233
X063089Y015211
X063898Y015095
X063082Y01336
X062843Y01077
X063896Y011272
X061148Y011263
X061091Y010957
X067228Y011274
X067232Y013585
X067238Y015089
X066562Y016417
X067241Y01733
X067237Y018877
X067245Y021
X065739
Y024967
X067245Y024947
X068243Y016284
X062272Y019328
X068799Y021
X071199Y02075
X072845Y020668
X072899Y01965
X072896Y018618
X071949Y01925
X070449
X072798Y021703
X073449Y02225
X074949
X074199Y01775
X074949Y01625
X073449
X074199Y01475
X075949Y015
Y0156
X075886Y012452
Y011852
X074199Y01175
X074949Y01325
X073449
X074949Y01025
X068795Y024947
X068949Y02695
X069699Y02845
X071199
X071949Y02995
X070449
X068949
X069439Y032305
X069693Y035006
X074299Y0337
X074749Y0319
X074249Y0314
X074949Y03595
X074199Y03745
X075886Y037552
Y038152
X074949Y03895
X073449
X074199Y04045
X075949Y0407
Y0413
X071949Y02695
X067249Y02895
X065839Y028951
X065499Y0302
X066229Y030202
X06695Y030189
X064749Y0302
X061449Y02845
X059949
X058099Y02865
Y029
X057799Y02935
X057349
X057199Y0274
Y027
X057749
Y0274
X058358Y031641
X058837Y031631
X062283Y034991
X062755Y034994
X06305Y035304
X062843Y03647
X063896Y036972
X061148Y036963
X061091Y036657
X061753Y035728
X063082Y039061
X063089Y040912
X063898Y040795
X067238Y04079
X067232Y039286
X067228Y036975
X067222Y03549
X054149Y0347
Y0343
Y03395
X053649Y0343
X053199
X053049Y038
X053399
Y03835
X053049
X053949Y03895
X054699Y04045
X053199
X056737Y039794
X056766Y039241
X053249Y02995
X052849
Y02945
X053249
X053921Y028627
X049649Y0303
Y03065
X049299
Y0303
X048161Y031003
X047792
X045699Y03145
X044199
X044949Y03295
X043449
X041949
X040449
Y03595
X041199Y03745
X044199
X044949Y036425
Y036075
X045399
Y036425
X046449Y03595
X047199Y03745
Y04045
X042699
X041199
X040749Y0411
X040249
X043449Y03895
X044199Y03445
X044949Y02995
X045699Y02845
X044199
X042699
X043449Y02695
X044949
X046449
X040449
X051118Y033008
X051124Y033333
X051455
X051456Y032996
X051599Y0356
Y036
Y0364
Y0368
X051999Y036
X052349
X052449Y03895
X050949
X051699Y04045
X0364Y0407
Y0413
X03465Y04045
X0354Y03895
X0339
X03465Y03745
X036337Y037552
Y038152
X0354Y03595
X03475Y0337
X0352Y0319
X0347Y0314
X0324Y02995
X0309
X0294
X027401Y030189
X02668Y030202
X02595Y0302
X0252
X02629Y028951
X0277Y02895
X03015Y02845
X03165
X0324Y02695
X0294
X02989Y032305
X030144Y035006
X027673Y03549
X02768Y036975
X027683Y039286
X02769Y04079
X024349Y040795
X02354Y040912
X023533Y039061
X023294Y03647
X023501Y035304
X023206Y034994
X022734Y034991
X022204Y035728
X0216Y036963
X024347Y036972
X0219Y02845
X0204
X01855Y02865
Y029
X01825Y02935
X0178
X01765Y0274
Y027
X0182
Y0274
X01881Y031641
X019288Y031631
X0146Y03395
Y0343
Y0347
X0141Y0343
X01365
X0128Y036
X01245
X01205
Y0364
Y0368
Y0356
X011906Y033333
X011575
X011569Y033008
X011907Y032996
X0101Y03065
X00975
Y0303
X0101
X008612Y031003
X008244
X00615Y03145
Y02845
X0069Y02695
X0133Y02945
X0137
Y02995
X0133
X014372Y028627
X01385Y038
X0135
Y03835
X01385
X0144Y03895
X0129
X0114
X01215Y04045
X01365
X01515
X017189Y039794
X017217Y039241
X021542Y036657
X00765Y03745
X0069Y03595
X00765Y04045
X00315
X00165
X0012Y0411
X0007
X00165Y03745
X0009Y03595
Y03295
X0024
X0039
X0054
X00465Y03445
X0054Y036075
Y036425
X00585
Y036075
X00465Y03745
X0039Y03895
X00465Y03145
X0054Y02995
X00465Y02845
X00315
X0039Y02695
X0054
X0009
X0007Y04155
X0012
X000754Y04325
Y04385
Y04445
Y04505
Y04565
Y04625
Y04685
X001684Y046839
Y046239
Y045639
Y045039
Y044439
Y043839
Y043239
X002614Y043243
Y043843
Y044443
Y045043
Y045643
Y046243
Y046843
X003545Y04686
Y04626
Y045661
Y045061
Y044461
Y043861
Y04326
X0039Y04795
X0054
X00465Y04945
X00615
X0069Y04795
X00845Y0483
X00915Y04945
X01065
X011668Y050619
X013177Y050624
Y046652
X0129Y04495
X0144
X01515Y04345
X01365
X01215
X0129Y04195
X0144
X0114
X009603Y041969
X009598Y041546
X009182Y041539
X008743Y041541
X008745Y041969
X009166
X0093Y0432
Y043725
Y04425
X00985
Y043725
Y0432
X0114Y04495
X017139Y045108
X017139Y044154
X017138Y043123
X0204Y04645
X0219
X0234
X023525Y04465
X02433Y044318
X023507Y042886
X023423Y041933
X027014Y042117
X027692Y043031
X027688Y044578
X027696Y0467
X02619
X02925
X03165Y04645
X033296Y046369
X03335Y04535
X033347Y044318
X0324Y04495
X0309
X033249Y047403
X0339Y04795
X0354
X03465Y04345
X0354Y04195
X0339
X028694Y041984
X022723Y045029
X02619Y050667
X027696Y050647
X029246
X040302Y04685
Y04625
Y04565
Y04505
Y04445
Y04385
Y04325
X041233Y043239
Y043839
Y044439
Y045039
Y045639
Y046239
Y046839
X042163Y046843
Y046243
Y045643
Y045043
Y044443
Y043843
Y043243
X043094Y04326
Y043861
Y044461
Y045061
Y045661
Y04626
Y04686
X043449Y04795
X044949
X046449
X047999Y0483
X048699Y04945
X050199
X051217Y050619
X052726Y050624
Y046652
X052449Y04495
X050949
X049399Y04425
Y043725
Y0432
X048849
Y043725
Y04425
X048715Y041969
X048294
X048292Y041541
X048731Y041539
X049147Y041546
X049152Y041969
X050949Y04195
X052449
X051699Y04345
X045699Y04945
X044199
X040749Y04155
X040249
X053949Y04195
X054699Y04345
X053199
X053949Y04495
X056687Y045108
X056687Y044154
X056686Y043123
X059949Y04645
X061449
X062949
X063074Y04465
X063878Y044318
X063056Y042886
X062972Y041933
X066562Y042117
X067241Y043031
X067237Y044578
X067245Y0467
X065739
Y050667
X067245Y050647
X068243Y041984
X062272Y045029
X068799Y0467
X071199Y04645
X072845Y046369
X072899Y04535
X072896Y044318
X071949Y04495
X070449
X072798Y047403
X073449Y04795
X074949
X074199Y04345
X074949Y04195
X073449
X068795Y050647
T02
X03815Y0119
Y0124
Y0151
Y0156
X077699
Y0151
Y0124
Y0119
Y0376
Y0381
Y0408
Y0413
X03815
Y0408
Y0381
Y0376
T03
X076242Y001407
X076028Y001872
X076129Y002374
X076505Y002721
X077013Y00278
X077459Y00253
X077673Y002065
X077572Y001564
X077196Y001217
X076688Y001157
X042339Y001514
X04244Y002015
X042226Y00248
X04178Y00273
X041271Y002671
X040896Y002324
X040795Y001822
X041009Y001357
X041455Y001107
X041963Y001167
X038024Y001564
X038124Y002065
X03791Y00253
X037464Y00278
X037648Y001217
X03714Y001157
X036693Y001407
X03648Y001872
X03658Y002374
X036956Y002721
X002677Y00248
X002891Y002015
X002791Y001514
X002415Y001167
X001907Y001107
X00146Y001357
X001247Y001822
X001347Y002324
X001723Y002671
X002231Y00273
X002215Y02288
X001707Y02282
X00126Y02307
X001047Y023535
X001147Y024037
X001523Y024384
X002031Y024443
X002477Y024193
X002691Y023728
X002591Y023227
X0367Y023124
X036486Y023588
X036586Y02409
X036962Y024437
X037146Y022873
X037654Y022933
X03803Y02328
X03813Y023782
X037916Y024246
X03747Y024497
X040696Y024037
X040595Y023535
X040809Y02307
X041255Y02282
X041763Y02288
X042139Y023227
X04224Y023728
X042026Y024193
X04158Y024443
X041071Y024384
X076135Y02409
X076035Y023588
X076248Y023124
X076695Y022873
X077203Y022933
X077579Y02328
X077679Y023782
X077465Y024246
X077019Y024497
X076511Y024437
X076688Y026857
X077196Y026917
X077572Y027264
X077673Y027766
X077459Y02823
X077013Y028481
X076505Y028421
X076129Y028074
X076028Y027572
X076242Y027108
X042339Y027214
X04244Y027716
X042226Y02818
X04178Y028431
X041271Y028371
X040896Y028024
X040795Y027522
X041009Y027058
X041455Y026807
X041963Y026867
X038024Y027264
X038124Y027766
X03791Y02823
X037464Y028481
X037648Y026917
X03714Y026857
X036693Y027108
X03648Y027572
X03658Y028074
X036956Y028421
X002677Y02818
X002891Y027716
X002791Y027214
X002415Y026867
X001907Y026807
X00146Y027058
X001247Y027522
X001347Y028024
X001723Y028371
X002231Y028431
X002215Y04858
X001707Y04852
X00126Y048771
X001047Y049235
X001147Y049737
X001523Y050084
X002031Y050144
X002477Y049893
X002691Y049429
X002591Y048927
X0367Y048824
X036486Y049289
X036586Y04979
X036962Y050137
X037146Y048574
X037654Y048633
X03803Y04898
X03813Y049482
X037916Y049947
X03747Y050197
X040696Y049737
X040595Y049235
X040809Y048771
X041255Y04852
X041763Y04858
X042139Y048927
X04224Y049429
X042026Y049893
X04158Y050144
X041071Y050084
X076135Y04979
X076035Y049289
X076248Y048824
X076695Y048574
X077203Y048633
X077579Y04898
X077679Y049482
X077465Y049947
X077019Y050197
X076511Y050137
T04
X077699Y00535
Y00835
X051592Y0028
X049592
X047592
X046592
X03815Y00535
Y00835
X012043Y0028
X010043
X008043
X007043
X077699Y03105
Y03405
X051592Y0285
X049592
X047592
X046592
X03815Y03105
Y03405
X012043Y0285
X010043
X008043
X007043
T05
X035251Y01865
Y01965
Y02065
Y02165
X0384
Y02065
Y01965
Y01865
X074799
Y01965
Y02065
Y02165
X077949
Y02065
Y01965
Y01865
X035251Y04435
Y04535
Y04635
Y04735
X0384
Y04635
Y04535
Y04435
X074799
Y04535
Y04635
Y04735
X077949
Y04635
Y04535
Y04435
T06
X069381Y000909
X070381
X071381
X072381
X073381
X074381
X076049Y0079
Y0084
Y0089
X072067Y0088
X071067
Y0098
X072067
X069949Y0078
X068949
Y0068
X069949
X067949
X066949
X065949
X064949
X063949
X062949
X061949
X060949
Y0078
X061949
X062949
X063949
X064949
X065949
X066949
X067949
X067405Y001903
X066405
X065405
X064405
Y000903
X065405
X066405
X067405
X062956Y000884
X061956
X060956
X059956
X058956
X058952Y003749
X059952
X060952
X059752Y0088
X058752
Y0098
X059752
X057199Y00965
Y00865
Y00765
X056199
Y00865
Y00965
X0365Y0089
Y0084
Y0079
X032518Y0088
X031518
Y0098
X032518
X0304Y0078
X0294
X0284
X0274
X0264
X0254
X0244
X0234
X0224
Y0068
X0234
X0244
X0254
X0264
X0274
X0284
X0294
X0304
X030832Y000909
X029832
X027856Y000903
X026856
X025856
X024856
Y001903
X025856
X026856
X027856
X031832Y000909
X032832
X033832
X034832
X023408Y000884
X022408
X021408
X020408
X019408
X019403Y003749
X020403
X021403
X0214Y0068
Y0078
X020203Y0088
X019203
Y0098
X020203
X01765Y00965
Y00865
Y00765
X01665
Y00865
Y00965
Y01065
X01765
Y01165
X01665
Y01265
X01765
X019203Y0128
Y0118
Y0108
X020203
Y0118
Y0128
Y0138
X019203
Y0148
X020203
Y0158
X019203
Y0168
X020203
Y0178
X019203
Y0188
X020203
X01765Y01895
Y01995
X01665
Y01895
Y01795
X01765
Y01695
X01665
Y01595
X01765
Y01495
X01665
X00845Y024536
X00745
X00645
X021985Y024295
Y023295
X022985
Y024295
X023985
Y023295
X03195Y02455
X03295
X03395
X03495
X032518Y0188
Y0178
Y0168
Y0158
Y0148
Y0138
Y0128
Y0118
Y0108
X031518
Y0118
Y0128
Y0138
Y0148
Y0158
Y0168
Y0178
Y0188
X045999Y024536
X046999
X047999
X056199Y01995
X057199
Y01895
X056199
Y01795
X057199
Y01695
X056199
Y01595
X057199
Y01495
X056199
Y01265
Y01165
Y01065
X057199
Y01165
Y01265
X058752Y0128
Y0118
Y0108
X059752
Y0118
Y0128
Y0138
X058752
Y0148
X059752
Y0158
X058752
Y0168
X059752
Y0178
X058752
Y0188
X059752
X061534Y023295
Y024295
X062534
Y023295
X063534
Y024295
X071499Y02455
X072499
X073499
X074499
X072067Y0188
Y0178
Y0168
Y0158
Y0148
Y0138
Y0128
Y0118
Y0108
X071067
Y0118
Y0128
Y0138
Y0148
Y0158
Y0168
Y0178
Y0188
X071381Y026609
X070381
X069381
X072381
X073381
X074381
X076049Y0336
Y0341
Y0346
X072067Y0345
X071067
Y0355
X072067
Y0365
X071067
Y0375
X072067
Y0385
X071067
Y0395
X072067
Y0405
X071067
X069949Y0335
X068949
Y0325
X069949
X067949
X066949
X065949
X064949
X063949
X062949
X061949
X060949
Y0335
X061949
X062949
X063949
X064949
X065949
X066949
X067949
X067405Y027603
X066405
X065405
X064405
Y026603
X065405
X066405
X067405
X062956Y026584
X061956
X060956
X059956
X058956
X058952Y029449
X059952
X060952
X059752Y0345
X058752
Y0355
X059752
Y0365
X058752
Y0375
X059752
Y0385
X058752
Y0395
X059752
Y0405
X058752
X057199Y04065
X056199
Y03835
Y03735
Y03635
Y03535
Y03435
Y03335
X057199
Y03435
Y03535
Y03635
Y03735
Y03835
X0365Y0346
Y0341
Y0336
X032518Y0345
X031518
Y0355
X032518
Y0365
X031518
Y0375
X032518
Y0385
X031518
Y0395
X032518
Y0405
X031518
X0304Y0335
X0294
X0284
X0274
X0264
X0254
X0244
X0234
X0224
Y0325
X0234
X0244
X0254
X0264
X0274
X0284
X0294
X0304
X030832Y026609
X029832
X027856Y026603
X026856
X025856
X024856
Y027603
X025856
X026856
X027856
X031832Y026609
X032832
X033832
X034832
X023408Y026584
X022408
X021408
X020408
X019408
X019403Y029449
X020403
X021403
X0214Y0325
Y0335
X020203Y0345
X019203
Y0355
X020203
Y0365
X019203
Y0375
X020203
Y0385
X019203
Y0395
X020203
Y0405
X019203
X01765Y04065
X01665
Y03835
Y03735
Y03635
Y03535
Y03435
Y03335
X01765
Y03435
Y03535
Y03635
Y03735
Y03835
Y04165
Y04265
Y04365
Y04465
Y04565
X01665
Y04465
Y04365
Y04265
Y04165
X019203Y0415
X020203
Y0425
X019203
Y0435
X020203
Y0445
X019203
X00845Y050236
X00745
X00645
X021985Y049995
Y048995
X022985
Y049995
X023985
Y048995
X03195Y05025
X03295
X03395
X03495
X032518Y0445
Y0435
Y0425
Y0415
X031518
Y0425
Y0435
Y0445
X045999Y050236
X046999
X047999
X056199Y04565
X057199
Y04465
X056199
Y04365
X057199
Y04265
X056199
Y04165
X057199
X058752Y0415
X059752
Y0425
X058752
Y0435
X059752
Y0445
X058752
X061534Y048995
Y049995
X062534
Y048995
X063534
Y049995
X071499Y05025
X072499
X073499
X074499
X072067Y0445
Y0435
Y0425
Y0415
X071067
Y0425
Y0435
Y0445
T07
X001426Y0127
X003126
X004826
X016235Y023745
X017935
X019635
X040974Y0127
X042674
X044374
X055784Y023745
X057484
X059184
X044374Y0384
X042674
X040974
X004826
X003126
X001426
X016235Y049445
X017935
X019635
X055784
X057484
X059184
T08
X07985Y0009
X-00105
Y0504
X0799Y05035
T09
X076851Y001969
X041617Y001919
X037302Y001969
X002069Y001919
X001869Y023632
X037308Y023685
X041417Y023632
X076857Y023685
X076851Y027669
X041617Y027619
X037302Y027669
X002069Y027619
X001869Y049332
X037308Y049385
X041417Y049332
X076857Y049385
M30
